<svg width="44" height="241" viewBox="0 0 44 241" fill="none" xmlns="http://www.w3.org/2000/svg">
<rect width="294.659" height="0.605526" transform="matrix(-1 8.74228e-08 8.74228e-08 1 43.6602 220.412)" fill="#DAEAEA"/>
<rect width="294.659" height="0.605526" transform="matrix(-1 8.74228e-08 8.74228e-08 1 43.6602 227.073)" fill="#DAEAEA"/>
<rect width="294.659" height="0.605526" transform="matrix(-1 8.74228e-08 8.74228e-08 1 43.6602 233.733)" fill="#DAEAEA"/>
<rect width="294.659" height="0.605526" transform="matrix(-1 8.74228e-08 8.74228e-08 1 43.6602 240.394)" fill="#DAEAEA"/>
<rect width="294.659" height="1.21105" transform="matrix(-1 8.74228e-08 8.74228e-08 1 43.6602 205.879)" fill="#DAEAEA"/>
<rect width="294.659" height="1.21105" transform="matrix(-1 8.74228e-08 8.74228e-08 1 43.6602 213.145)" fill="#DAEAEA"/>
<rect width="294.659" height="1.21105" transform="matrix(-1 8.74228e-08 8.74228e-08 1 43.6602 198.612)" fill="#DAEAEA"/>
<rect width="294.659" height="1.21105" transform="matrix(-1 8.74228e-08 8.74228e-08 1 43.6602 191.346)" fill="#DAEAEA"/>
<rect width="294.659" height="1.81658" transform="matrix(-1 8.74228e-08 8.74228e-08 1 43.6602 183.475)" fill="#DAEAEA"/>
<rect width="294.659" height="1.81658" transform="matrix(-1 8.74228e-08 8.74228e-08 1 43.6602 175.603)" fill="#DAEAEA"/>
<rect width="294.659" height="1.81658" transform="matrix(-1 8.74228e-08 8.74228e-08 1 43.6602 167.731)" fill="#DAEAEA"/>
<rect width="294.659" height="1.81658" transform="matrix(-1 8.74228e-08 8.74228e-08 1 43.6602 159.86)" fill="#DAEAEA"/>
<rect width="294.659" height="3.02763" transform="matrix(-1 8.74228e-08 8.74228e-08 1 43.6602 150.775)" fill="#DAEAEA"/>
<rect width="294.659" height="3.02763" transform="matrix(-1 8.74228e-08 8.74228e-08 1 43.6602 141.693)" fill="#DAEAEA"/>
<rect width="294.659" height="3.02763" transform="matrix(-1 8.74228e-08 8.74228e-08 1 43.6602 132.61)" fill="#DAEAEA"/>
<rect width="294.659" height="3.02763" transform="matrix(-1 8.74228e-08 8.74228e-08 1 43.6602 123.527)" fill="#DAEAEA"/>
<rect width="294.659" height="3.63316" transform="matrix(-1 8.74228e-08 8.74228e-08 1 43.6602 113.839)" fill="#DAEAEA"/>
<rect width="294.659" height="3.63316" transform="matrix(-1 8.74228e-08 8.74228e-08 1 43.6602 104.151)" fill="#DAEAEA"/>
<rect width="294.659" height="3.63316" transform="matrix(-1 8.74228e-08 8.74228e-08 1 43.6602 94.4622)" fill="#DAEAEA"/>
<rect width="294.659" height="3.63316" transform="matrix(-1 8.74228e-08 8.74228e-08 1 43.6602 84.7738)" fill="#DAEAEA"/>
<rect width="294.659" height="4.23868" transform="matrix(-1 8.74228e-08 8.74228e-08 1 43.6602 74.4812)" fill="#DAEAEA"/>
<rect width="294.659" height="4.23868" transform="matrix(-1 8.74228e-08 8.74228e-08 1 43.6602 64.1868)" fill="#DAEAEA"/>
<rect width="294.659" height="4.23868" transform="matrix(-1 8.74228e-08 8.74228e-08 1 43.6602 53.8938)" fill="#DAEAEA"/>
<rect width="294.659" height="4.23868" transform="matrix(-1 8.74228e-08 8.74228e-08 1 43.6602 43.5994)" fill="#DAEAEA"/>
<rect width="294.659" height="4.84421" transform="matrix(-1 8.74228e-08 8.74228e-08 1 43.6602 32.6987)" fill="#DAEAEA"/>
<rect width="294.659" height="4.84421" transform="matrix(-1 8.74228e-08 8.74228e-08 1 43.6602 21.7988)" fill="#DAEAEA"/>
<rect width="294.659" height="4.84421" transform="matrix(-1 8.74228e-08 8.74228e-08 1 43.6602 10.8994)" fill="#DAEAEA"/>
<rect width="294.659" height="4.84421" transform="matrix(-1 8.74228e-08 8.74228e-08 1 43.6602 -6.10352e-05)" fill="#DAEAEA"/>
</svg>
