<svg width="295" height="242" viewBox="0 0 295 242" fill="none" xmlns="http://www.w3.org/2000/svg">
<rect width="294.659" height="0.605526" transform="matrix(-1 8.74228e-08 8.74228e-08 1 294.66 220.704)" fill="#DAEAEA"/>
<rect width="294.659" height="0.605526" transform="matrix(-1 8.74228e-08 8.74228e-08 1 294.66 227.365)" fill="#DAEAEA"/>
<rect width="294.659" height="0.605526" transform="matrix(-1 8.74228e-08 8.74228e-08 1 294.66 234.025)" fill="#DAEAEA"/>
<rect width="294.659" height="0.605526" transform="matrix(-1 8.74228e-08 8.74228e-08 1 294.66 240.686)" fill="#DAEAEA"/>
<rect width="294.659" height="1.21105" transform="matrix(-1 8.74228e-08 8.74228e-08 1 294.66 206.171)" fill="#DAEAEA"/>
<rect width="294.659" height="1.21105" transform="matrix(-1 8.74228e-08 8.74228e-08 1 294.66 213.438)" fill="#DAEAEA"/>
<rect width="294.659" height="1.21105" transform="matrix(-1 8.74228e-08 8.74228e-08 1 294.66 198.905)" fill="#DAEAEA"/>
<rect width="294.659" height="1.21105" transform="matrix(-1 8.74228e-08 8.74228e-08 1 294.66 191.639)" fill="#DAEAEA"/>
<rect width="294.659" height="1.81658" transform="matrix(-1 8.74228e-08 8.74228e-08 1 294.66 183.768)" fill="#DAEAEA"/>
<rect width="294.659" height="1.81658" transform="matrix(-1 8.74228e-08 8.74228e-08 1 294.66 175.896)" fill="#DAEAEA"/>
<rect width="294.659" height="1.81658" transform="matrix(-1 8.74228e-08 8.74228e-08 1 294.66 168.023)" fill="#DAEAEA"/>
<rect width="294.659" height="1.81658" transform="matrix(-1 8.74228e-08 8.74228e-08 1 294.66 160.152)" fill="#DAEAEA"/>
<rect width="294.659" height="3.02763" transform="matrix(-1 8.74228e-08 8.74228e-08 1 294.66 151.068)" fill="#DAEAEA"/>
<rect width="294.659" height="3.02763" transform="matrix(-1 8.74228e-08 8.74228e-08 1 294.66 141.985)" fill="#DAEAEA"/>
<rect width="294.659" height="3.02763" transform="matrix(-1 8.74228e-08 8.74228e-08 1 294.66 132.902)" fill="#DAEAEA"/>
<rect width="294.659" height="3.02763" transform="matrix(-1 8.74228e-08 8.74228e-08 1 294.66 123.819)" fill="#DAEAEA"/>
<rect width="294.659" height="3.63316" transform="matrix(-1 8.74228e-08 8.74228e-08 1 294.66 114.131)" fill="#DAEAEA"/>
<rect width="294.659" height="3.63316" transform="matrix(-1 8.74228e-08 8.74228e-08 1 294.66 104.443)" fill="#DAEAEA"/>
<rect width="294.659" height="3.63316" transform="matrix(-1 8.74228e-08 8.74228e-08 1 294.66 94.7544)" fill="#DAEAEA"/>
<rect width="294.659" height="3.63316" transform="matrix(-1 8.74228e-08 8.74228e-08 1 294.66 85.0659)" fill="#DAEAEA"/>
<rect width="294.659" height="4.23868" transform="matrix(-1 8.74228e-08 8.74228e-08 1 294.66 74.7734)" fill="#DAEAEA"/>
<rect width="294.659" height="4.23868" transform="matrix(-1 8.74228e-08 8.74228e-08 1 294.66 64.479)" fill="#DAEAEA"/>
<rect width="294.659" height="4.23868" transform="matrix(-1 8.74228e-08 8.74228e-08 1 294.66 54.186)" fill="#DAEAEA"/>
<rect width="294.659" height="4.23868" transform="matrix(-1 8.74228e-08 8.74228e-08 1 294.66 43.8916)" fill="#DAEAEA"/>
<rect width="294.659" height="4.84421" transform="matrix(-1 8.74228e-08 8.74228e-08 1 294.66 32.991)" fill="#DAEAEA"/>
<rect width="294.659" height="4.84421" transform="matrix(-1 8.74228e-08 8.74228e-08 1 294.66 22.0911)" fill="#DAEAEA"/>
<rect width="294.659" height="4.84421" transform="matrix(-1 8.74228e-08 8.74228e-08 1 294.66 11.1917)" fill="#DAEAEA"/>
<rect width="294.659" height="4.84421" transform="matrix(-1 8.74228e-08 8.74228e-08 1 294.66 0.292236)" fill="#DAEAEA"/>
</svg>
