<svg width="241" height="242" viewBox="0 0 241 242" fill="none" xmlns="http://www.w3.org/2000/svg">
<path d="M-25.8643 210.296C-4.23195 210.296 -4.23195 241.244 17.4004 241.244C39.0327 241.244 39.0327 210.296 60.665 210.296C82.2973 210.296 82.2973 241.244 103.93 241.244C125.562 241.244 125.562 210.296 147.194 210.296C168.826 210.296 168.826 241.244 190.459 241.244C212.091 241.244 212.091 210.296 233.723 210.296C255.356 210.296 255.356 241.244 276.988 241.244" stroke="#B8D6D6" stroke-width="0.242191" stroke-miterlimit="10"/>
<path d="M-36.1855 196.326C-14.5532 196.326 -14.5532 227.273 7.07906 227.273C28.7114 227.273 28.7114 196.326 50.3437 196.326C71.976 196.326 71.976 227.273 93.6083 227.273C115.241 227.273 115.241 196.326 136.873 196.326C158.505 196.326 158.505 227.273 180.138 227.273C201.77 227.273 201.77 196.326 223.402 196.326C245.034 196.326 245.034 227.273 266.667 227.273" stroke="#B8D6D6" stroke-width="0.726574" stroke-miterlimit="10"/>
<path d="M-25.8643 182.353C-4.23195 182.353 -4.23195 213.301 17.4004 213.301C39.0327 213.301 39.0327 182.353 60.665 182.353C82.2973 182.353 82.2973 213.301 103.93 213.301C125.562 213.301 125.562 182.353 147.194 182.353C168.826 182.353 168.826 213.301 190.459 213.301C212.091 213.301 212.091 182.353 233.723 182.353C255.356 182.353 255.356 213.301 276.988 213.301" stroke="#B8D6D6" stroke-width="0.242191" stroke-miterlimit="10"/>
<path d="M-36.1855 168.386C-14.5532 168.386 -14.5532 199.334 7.07906 199.334C28.7114 199.334 28.7114 168.386 50.3437 168.386C71.976 168.386 71.976 199.334 93.6083 199.334C115.241 199.334 115.241 168.386 136.873 168.386C158.505 168.386 158.505 199.334 180.138 199.334C201.77 199.334 201.77 168.386 223.402 168.386C245.034 168.386 245.034 199.334 266.667 199.334" stroke="#B8D6D6" stroke-width="0.726574" stroke-miterlimit="10"/>
<path d="M-25.8638 154.414C-4.23147 154.414 -4.23146 185.361 17.4008 185.361C39.0331 185.361 39.0331 154.414 60.6654 154.414C82.2978 154.414 82.2978 185.361 103.93 185.361C125.562 185.361 125.562 154.414 147.195 154.414C168.827 154.414 168.827 185.361 190.459 185.361C212.092 185.361 212.092 154.414 233.724 154.414C255.356 154.414 255.356 185.361 276.989 185.361" stroke="#B8D6D6" stroke-width="0.242191" stroke-miterlimit="10"/>
<path d="M-36.1855 140.443C-14.5532 140.443 -14.5532 171.391 7.07906 171.391C28.7114 171.391 28.7114 140.443 50.3437 140.443C71.976 140.443 71.976 171.391 93.6083 171.391C115.241 171.391 115.241 140.443 136.873 140.443C158.505 140.443 158.505 171.391 180.138 171.391C201.77 171.391 201.77 140.443 223.402 140.443C245.034 140.443 245.034 171.391 266.667 171.391" stroke="#B8D6D6" stroke-width="0.726574" stroke-miterlimit="10"/>
<path d="M-25.8638 126.472C-4.23147 126.472 -4.23146 157.42 17.4008 157.42C39.0331 157.42 39.0331 126.472 60.6654 126.472C82.2978 126.472 82.2978 157.42 103.93 157.42C125.562 157.42 125.562 126.472 147.195 126.472C168.827 126.472 168.827 157.42 190.459 157.42C212.092 157.42 212.092 126.472 233.724 126.472C255.356 126.472 255.356 157.42 276.989 157.42" stroke="#B8D6D6" stroke-width="0.242191" stroke-miterlimit="10"/>
<path d="M-36.1855 112.503C-14.5532 112.503 -14.5532 143.451 7.07906 143.451C28.7114 143.451 28.7114 112.503 50.3437 112.503C71.976 112.503 71.976 143.451 93.6083 143.451C115.241 143.451 115.241 112.503 136.873 112.503C158.505 112.503 158.505 143.451 180.138 143.451C201.77 143.451 201.77 112.503 223.402 112.503C245.034 112.503 245.034 143.451 266.667 143.451" stroke="#B8D6D6" stroke-width="0.726574" stroke-miterlimit="10"/>
<path d="M-25.8643 98.5325C-4.23195 98.5325 -4.23195 129.48 17.4004 129.48C39.0327 129.48 39.0327 98.5325 60.665 98.5325C82.2973 98.5325 82.2973 129.48 103.93 129.48C125.562 129.48 125.562 98.5325 147.194 98.5325C168.826 98.5325 168.826 129.48 190.459 129.48C212.091 129.48 212.091 98.5325 233.723 98.5325C255.356 98.5325 255.356 129.48 276.988 129.48" stroke="#B8D6D6" stroke-width="0.242191" stroke-miterlimit="10"/>
<path d="M-36.1855 84.5621C-14.5532 84.5621 -14.5532 115.51 7.07906 115.51C28.7114 115.51 28.7114 84.5621 50.3437 84.5621C71.976 84.5621 71.976 115.51 93.6083 115.51C115.241 115.51 115.241 84.5621 136.873 84.5621C158.505 84.5621 158.505 115.51 180.138 115.51C201.77 115.51 201.77 84.5621 223.402 84.5621C245.034 84.5621 245.034 115.51 266.667 115.51" stroke="#B8D6D6" stroke-width="0.726574" stroke-miterlimit="10"/>
<path d="M-25.8643 70.5936C-4.23195 70.5936 -4.23195 101.541 17.4004 101.541C39.0327 101.541 39.0327 70.5936 60.665 70.5936C82.2973 70.5936 82.2973 101.541 103.93 101.541C125.562 101.541 125.562 70.5936 147.194 70.5936C168.826 70.5936 168.826 101.541 190.459 101.541C212.091 101.541 212.091 70.5936 233.723 70.5936C255.356 70.5936 255.356 101.541 276.988 101.541" stroke="#B8D6D6" stroke-width="0.242191" stroke-miterlimit="10"/>
<path d="M-36.1855 56.6226C-14.5532 56.6226 -14.5532 87.5703 7.07906 87.5703C28.7114 87.5703 28.7114 56.6226 50.3437 56.6226C71.976 56.6226 71.976 87.5703 93.6083 87.5703C115.241 87.5703 115.241 56.6226 136.873 56.6226C158.505 56.6226 158.505 87.5703 180.138 87.5703C201.77 87.5703 201.77 56.6226 223.402 56.6226C245.034 56.6226 245.034 87.5703 266.667 87.5703" stroke="#B8D6D6" stroke-width="0.726574" stroke-miterlimit="10"/>
<path d="M-25.8638 42.65C-4.23147 42.65 -4.23146 73.5977 17.4008 73.5977C39.0331 73.5977 39.0331 42.65 60.6654 42.65C82.2978 42.65 82.2978 73.5977 103.93 73.5977C125.562 73.5976 125.562 42.65 147.195 42.65C168.827 42.65 168.827 73.5976 190.459 73.5976C212.092 73.5976 212.092 42.65 233.724 42.65C255.356 42.65 255.356 73.5976 276.989 73.5976" stroke="#B8D6D6" stroke-width="0.242191" stroke-miterlimit="10"/>
<path d="M-36.1855 28.6793C-14.5532 28.6793 -14.5532 59.627 7.07906 59.627C28.7114 59.627 28.7114 28.6793 50.3437 28.6793C71.976 28.6793 71.976 59.6269 93.6083 59.6269C115.241 59.6269 115.241 28.6793 136.873 28.6793C158.505 28.6793 158.505 59.6269 180.138 59.6269C201.77 59.6269 201.77 28.6793 223.402 28.6793C245.034 28.6793 245.034 59.6269 266.667 59.6269" stroke="#B8D6D6" stroke-width="0.726574" stroke-miterlimit="10"/>
<path d="M-25.8638 14.7086C-4.23147 14.7086 -4.23146 45.6562 17.4008 45.6562C39.0331 45.6562 39.0331 14.7086 60.6654 14.7086C82.2978 14.7086 82.2978 45.6562 103.93 45.6562C125.562 45.6562 125.562 14.7086 147.195 14.7086C168.827 14.7086 168.827 45.6562 190.459 45.6562C212.092 45.6562 212.092 14.7086 233.724 14.7086C255.356 14.7086 255.356 45.6562 276.989 45.6562" stroke="#B8D6D6" stroke-width="0.242191" stroke-miterlimit="10"/>
<path d="M-36.1855 0.735936C-14.5532 0.735935 -14.5532 31.6836 7.07906 31.6836C28.7114 31.6836 28.7114 0.735933 50.3437 0.735933C71.976 0.735932 71.976 31.6836 93.6083 31.6836C115.241 31.6836 115.241 0.73593 136.873 0.735929C158.505 0.735928 158.505 31.6836 180.138 31.6836C201.77 31.6836 201.77 0.735926 223.402 0.735925C245.034 0.735924 245.034 31.6836 266.667 31.6836" stroke="#B8D6D6" stroke-width="0.726574" stroke-miterlimit="10"/>
</svg>
