<svg width="150" height="18" viewBox="0 0 150 18" fill="none" xmlns="http://www.w3.org/2000/svg">
<path d="M142.556 3.28885C142.26 4.22634 142.071 4.85133 141.989 5.16382L140.04 11.2575H146.232L144.283 5.16382C143.839 3.84805 143.444 2.62275 143.099 1.4879C142.951 2.03065 142.77 2.63097 142.556 3.28885ZM136.512 17.0797L142.087 0.328381H144.283L149.859 17.0797H148.156L146.602 12.5157H139.645L138.189 17.0797H136.512Z" fill="#203D4D"/>
<path d="M111.332 2.12126V8.63431H115.329C116.463 8.63431 117.384 8.5274 118.092 8.31359C118.963 8.05043 119.564 7.5488 119.893 6.80868C120.074 6.36461 120.164 5.87942 120.164 5.35311C120.164 4.28405 119.86 3.47815 119.251 2.93539C118.807 2.52422 118.059 2.26929 117.006 2.1706C116.513 2.13771 116.052 2.12126 115.625 2.12126H111.332ZM118.24 9.69514L122.138 17.6391H120.361L116.562 9.91718H111.332V17.6391H109.654V0.887733H115.723C117.894 0.887733 119.457 1.24135 120.411 1.94857C121.381 2.65579 121.866 3.78242 121.866 5.32844C121.866 7.58169 120.657 9.03726 118.24 9.69514Z" fill="#203D4D"/>
<path d="M87.7259 3.84821C87.4299 4.78569 87.2408 5.41068 87.1585 5.72317L85.2095 11.8168H91.4019L89.4529 5.72317C89.0088 4.40741 88.6141 3.1821 88.2687 2.04725C88.1207 2.59001 87.9397 3.19032 87.7259 3.84821ZM81.6816 17.6391L87.2572 0.887733H89.4529L95.0284 17.6391H93.3262L91.7719 13.075H84.8148L83.3592 17.6391H81.6816Z" fill="#203D4D"/>
<path d="M67.3252 17.4122H54.7188V16.129L67.3252 15.8614V17.4122ZM61.8984 8.41901L67.3252 8.42097V9.70222H54.7188V8.42097L60.1465 8.41901H61.8984ZM67.3252 1.99226L54.7188 1.72468V0.441475H67.3252V1.99226Z" fill="#203D4D"/>
<path d="M40.3514 0.624786L34.4798 6.81711L41.0915 17.4008H39.1919L33.2709 7.92729L30.2365 11.0851V17.4008H28.5342V0.624786H30.2365V9.11147L38.3531 0.624786H40.3514Z" fill="#203D4D"/>
<path d="M3.37988 2.94337C2.62331 3.71638 2.13812 4.88412 1.92431 6.44659C1.80918 7.12092 1.75162 7.94328 1.75162 8.91366C1.75162 11.5287 2.14634 13.4202 2.9358 14.5879C3.74171 15.7556 5.08215 16.3395 6.95711 16.3395C8.84853 16.3395 10.189 15.7639 10.9784 14.6126C11.7843 13.4448 12.1873 11.5534 12.1873 8.93832C12.1873 7.04691 11.9652 5.55845 11.5212 4.47294C10.9784 3.22297 10.1561 2.40061 9.05412 2.00588C8.47847 1.79207 7.77947 1.68517 6.95711 1.68517C5.37819 1.68517 4.18578 2.10457 3.37988 2.94337ZM12.0886 2.30193C13.3386 3.68348 13.9636 5.88739 13.9636 8.91366C13.9636 11.9235 13.3797 14.1356 12.212 15.55C11.0442 16.9645 9.2926 17.6717 6.95711 17.6717C4.70386 17.6717 2.99337 17.0056 1.82563 15.6734C0.608545 14.3083 0 12.0633 0 8.93832C0 5.89562 0.616766 3.68348 1.8503 2.30193C3.01804 0.986164 4.72031 0.328281 6.95711 0.328281C9.17747 0.328281 10.888 0.986164 12.0886 2.30193Z" fill="#203D4D"/>
</svg>
