<svg width="151" height="18" viewBox="0 0 151 18" fill="none" xmlns="http://www.w3.org/2000/svg">
<path d="M143.005 3.40784C142.709 4.34532 142.52 4.97031 142.438 5.2828L140.489 11.3764H146.681L144.732 5.2828C144.288 3.96704 143.893 2.74173 143.548 1.60688C143.4 2.14964 143.219 2.74995 143.005 3.40784ZM136.961 17.1987L142.536 0.447365H144.732L150.308 17.1987H148.605L147.051 12.6346H140.094L138.639 17.1987H136.961Z" fill="#EDF3F3"/>
<path d="M111.781 2.24024V8.75329H115.778C116.913 8.75329 117.834 8.64638 118.541 8.43257C119.413 8.16941 120.013 7.66778 120.342 6.92766C120.523 6.48359 120.613 5.9984 120.613 5.47209C120.613 4.40303 120.309 3.59713 119.7 3.05437C119.256 2.6432 118.508 2.38827 117.455 2.28959C116.962 2.25669 116.501 2.24024 116.074 2.24024H111.781ZM118.689 9.81412L122.587 17.7581H120.811L117.011 10.0362H111.781V17.7581H110.104V1.00671H116.172C118.344 1.00671 119.906 1.36033 120.86 2.06755C121.83 2.77477 122.315 3.9014 122.315 5.44742C122.315 7.70067 121.107 9.15624 118.689 9.81412Z" fill="#EDF3F3"/>
<path d="M88.1752 3.96719C87.8791 4.90467 87.69 5.52966 87.6077 5.84215L85.6588 11.9358H91.8511L89.9021 5.84215C89.458 4.52639 89.0633 3.30108 88.7179 2.16623C88.5699 2.70899 88.389 3.3093 88.1752 3.96719ZM82.1309 17.7581L87.7064 1.00671H89.9021L95.4777 17.7581H93.7754L92.2211 13.194H85.264L83.8085 17.7581H82.1309Z" fill="#EDF3F3"/>
<path d="M67.7744 17.5312H55.168V16.248L67.7744 15.9804V17.5312ZM62.3477 8.538L67.7744 8.53996V9.82121H55.168V8.53996L60.5957 8.538H62.3477ZM67.7744 2.11124L55.168 1.84367V0.560463H67.7744V2.11124Z" fill="#EDF3F3"/>
<path d="M40.8006 0.743767L34.929 6.93609L41.5407 17.5198H39.6411L33.7202 8.04627L30.6857 11.2041V17.5198H28.9834V0.743767H30.6857V9.23046L38.8023 0.743767H40.8006Z" fill="#EDF3F3"/>
<path d="M3.82909 3.06235C3.07253 3.83536 2.58734 5.00311 2.37353 6.56558C2.2584 7.23991 2.20083 8.06226 2.20083 9.03264C2.20083 11.6477 2.59556 13.5391 3.38502 14.7069C4.19093 15.8746 5.53137 16.4585 7.40633 16.4585C9.29775 16.4585 10.6382 15.8828 11.4276 14.7315C12.2336 13.5638 12.6365 11.6724 12.6365 9.05731C12.6365 7.16589 12.4145 5.67743 11.9704 4.59193C11.4276 3.34195 10.6053 2.5196 9.50333 2.12487C8.92769 1.91106 8.22869 1.80415 7.40633 1.80415C5.82741 1.80415 4.635 2.22355 3.82909 3.06235ZM12.5378 2.42091C13.7878 3.80247 14.4128 6.00638 14.4128 9.03264C14.4128 12.0425 13.8289 14.2546 12.6612 15.669C11.4934 17.0835 9.74182 17.7907 7.40633 17.7907C5.15308 17.7907 3.44259 17.1246 2.27485 15.7924C1.05776 14.4273 0.449219 12.1823 0.449219 9.05731C0.449219 6.0146 1.06599 3.80247 2.29952 2.42091C3.46726 1.10515 5.16953 0.447266 7.40633 0.447266C9.62669 0.447266 11.3372 1.10515 12.5378 2.42091Z" fill="#EDF3F3"/>
</svg>
