<svg width="265" height="249" viewBox="0 0 265 249" fill="none" xmlns="http://www.w3.org/2000/svg">
<mask id="mask0_3037_3670" style="mask-type:luminance" maskUnits="userSpaceOnUse" x="0" y="0" width="265" height="249">
<path d="M264.5 0.5V248.271H0.5V0.5H264.5Z" fill="white" stroke="white"/>
</mask>
<g mask="url(#mask0_3037_3670)">
<path d="M40.7228 -26.6982C40.7228 -4.36849 8.77734 -4.36849 8.77734 17.9613C8.77734 40.291 40.7228 40.291 40.7228 62.6208C40.7228 84.9505 8.77734 84.9505 8.77734 107.28C8.77734 129.61 40.7228 129.61 40.7228 151.94C40.7228 174.27 8.77734 174.27 8.77734 196.599C8.77734 218.929 40.7228 218.929 40.7228 241.259C40.7228 263.589 8.77734 263.589 8.77734 285.918" stroke="#BABABA" stroke-width="0.25" stroke-miterlimit="10"/>
<path d="M55.1447 -37.3524C55.1447 -15.0227 23.1992 -15.0227 23.1992 7.30709C23.1992 29.6368 55.1447 29.6368 55.1447 51.9666C55.1447 74.2964 23.1992 74.2964 23.1992 96.6261C23.1992 118.956 55.1447 118.956 55.1447 141.286C55.1447 163.615 23.1992 163.615 23.1992 185.945C23.1992 208.275 55.1447 208.275 55.1447 230.605C55.1447 252.934 23.1992 252.934 23.1992 275.264" stroke="#BABABA" stroke-width="0.75" stroke-miterlimit="10"/>
<path d="M69.5666 -26.6982C69.5666 -4.36849 37.6211 -4.36849 37.6211 17.9613C37.6211 40.291 69.5666 40.291 69.5666 62.6208C69.5666 84.9505 37.6211 84.9505 37.6211 107.28C37.6211 129.61 69.5666 129.61 69.5666 151.94C69.5666 174.27 37.6211 174.27 37.6211 196.599C37.6211 218.929 69.5666 218.929 69.5666 241.259C69.5666 263.589 37.6211 263.589 37.6211 285.918" stroke="#BABABA" stroke-width="0.25" stroke-miterlimit="10"/>
<path d="M83.9845 -37.3524C83.9845 -15.0227 52.0391 -15.0227 52.0391 7.30709C52.0391 29.6368 83.9845 29.6368 83.9845 51.9666C83.9845 74.2964 52.0391 74.2964 52.0391 96.6261C52.0391 118.956 83.9845 118.956 83.9845 141.286C83.9845 163.615 52.0391 163.615 52.0391 185.945C52.0391 208.275 83.9845 208.275 83.9845 230.605C83.9845 252.934 52.0391 252.934 52.0391 275.264" stroke="#BABABA" stroke-width="0.75" stroke-miterlimit="10"/>
<path d="M98.4064 -26.6982C98.4064 -4.36849 66.4609 -4.36849 66.4609 17.9613C66.4609 40.291 98.4064 40.291 98.4064 62.6208C98.4064 84.9505 66.4609 84.9505 66.4609 107.28C66.4609 129.61 98.4064 129.61 98.4064 151.94C98.4064 174.27 66.4609 174.27 66.4609 196.599C66.4609 218.929 98.4064 218.929 98.4064 241.259C98.4064 263.589 66.4609 263.589 66.4609 285.918" stroke="#BABABA" stroke-width="0.25" stroke-miterlimit="10"/>
<path d="M112.828 -37.3524C112.828 -15.0227 80.8828 -15.0227 80.8828 7.30709C80.8828 29.6368 112.828 29.6368 112.828 51.9666C112.828 74.2964 80.8828 74.2964 80.8828 96.6261C80.8828 118.956 112.828 118.956 112.828 141.286C112.828 163.615 80.8828 163.615 80.8828 185.945C80.8828 208.275 112.828 208.275 112.828 230.605C112.828 252.934 80.8828 252.934 80.8828 275.264" stroke="#BABABA" stroke-width="0.75" stroke-miterlimit="10"/>
<path d="M127.25 -26.6982C127.25 -4.36849 95.3047 -4.36849 95.3047 17.9613C95.3047 40.291 127.25 40.291 127.25 62.6208C127.25 84.9505 95.3047 84.9505 95.3047 107.28C95.3047 129.61 127.25 129.61 127.25 151.94C127.25 174.27 95.3047 174.27 95.3047 196.599C95.3047 218.929 127.25 218.929 127.25 241.259C127.25 263.589 95.3047 263.589 95.3047 285.918" stroke="#BABABA" stroke-width="0.25" stroke-miterlimit="10"/>
<path d="M141.668 -37.3524C141.668 -15.0227 109.723 -15.0227 109.723 7.30709C109.723 29.6368 141.668 29.6368 141.668 51.9666C141.668 74.2964 109.723 74.2964 109.723 96.6261C109.723 118.956 141.668 118.956 141.668 141.286C141.668 163.615 109.723 163.615 109.723 185.945C109.723 208.275 141.668 208.275 141.668 230.605C141.668 252.934 109.723 252.934 109.723 275.264" stroke="#BABABA" stroke-width="0.75" stroke-miterlimit="10"/>
<path d="M156.09 -26.6982C156.09 -4.36849 124.145 -4.36849 124.145 17.9613C124.145 40.291 156.09 40.291 156.09 62.6208C156.09 84.9505 124.145 84.9505 124.145 107.28C124.145 129.61 156.09 129.61 156.09 151.94C156.09 174.27 124.145 174.27 124.145 196.599C124.145 218.929 156.09 218.929 156.09 241.259C156.09 263.589 124.145 263.589 124.145 285.918" stroke="#BABABA" stroke-width="0.25" stroke-miterlimit="10"/>
<path d="M170.512 -37.3524C170.512 -15.0227 138.566 -15.0227 138.566 7.30709C138.566 29.6368 170.512 29.6368 170.512 51.9666C170.512 74.2964 138.566 74.2964 138.566 96.6261C138.566 118.956 170.512 118.956 170.512 141.286C170.512 163.615 138.566 163.615 138.566 185.945C138.566 208.275 170.512 208.275 170.512 230.605C170.512 252.934 138.566 252.934 138.566 275.264" stroke="#BABABA" stroke-width="0.75" stroke-miterlimit="10"/>
<path d="M184.93 -26.6982C184.93 -4.36849 152.984 -4.36849 152.984 17.9613C152.984 40.291 184.93 40.291 184.93 62.6208C184.93 84.9505 152.984 84.9505 152.984 107.28C152.984 129.61 184.93 129.61 184.93 151.94C184.93 174.27 152.984 174.27 152.984 196.599C152.984 218.929 184.93 218.929 184.93 241.259C184.93 263.589 152.984 263.589 152.984 285.918" stroke="#BABABA" stroke-width="0.25" stroke-miterlimit="10"/>
<path d="M199.352 -37.3524C199.352 -15.0227 167.406 -15.0227 167.406 7.30709C167.406 29.6368 199.352 29.6368 199.352 51.9666C199.352 74.2964 167.406 74.2964 167.406 96.6261C167.406 118.956 199.352 118.956 199.352 141.286C199.352 163.615 167.406 163.615 167.406 185.945C167.406 208.275 199.352 208.275 199.352 230.605C199.352 252.934 167.406 252.934 167.406 275.264" stroke="#BABABA" stroke-width="0.75" stroke-miterlimit="10"/>
<path d="M213.774 -26.6982C213.774 -4.36849 181.828 -4.36849 181.828 17.9613C181.828 40.291 213.774 40.291 213.774 62.6208C213.774 84.9505 181.828 84.9505 181.828 107.28C181.828 129.61 213.774 129.61 213.774 151.94C213.774 174.27 181.828 174.27 181.828 196.599C181.828 218.929 213.774 218.929 213.774 241.259C213.774 263.589 181.828 263.589 181.828 285.918" stroke="#BABABA" stroke-width="0.25" stroke-miterlimit="10"/>
<path d="M228.195 -37.3524C228.195 -15.0227 196.25 -15.0227 196.25 7.30709C196.25 29.6368 228.195 29.6368 228.195 51.9666C228.195 74.2964 196.25 74.2964 196.25 96.6261C196.25 118.956 228.195 118.956 228.195 141.286C228.195 163.615 196.25 163.615 196.25 185.945C196.25 208.275 228.195 208.275 228.195 230.605C228.195 252.934 196.25 252.934 196.25 275.264" stroke="#BABABA" stroke-width="0.75" stroke-miterlimit="10"/>
<path d="M242.617 -26.6982C242.617 -4.36849 210.672 -4.36849 210.672 17.9613C210.672 40.291 242.617 40.291 242.617 62.6208C242.617 84.9505 210.672 84.9505 210.672 107.28C210.672 129.61 242.617 129.61 242.617 151.94C242.617 174.27 210.672 174.27 210.672 196.599C210.672 218.929 242.617 218.929 242.617 241.259C242.617 263.589 210.672 263.589 210.672 285.918" stroke="#BABABA" stroke-width="0.25" stroke-miterlimit="10"/>
<path d="M257.039 -37.3524C257.039 -15.0227 225.094 -15.0227 225.094 7.30709C225.094 29.6368 257.039 29.6368 257.039 51.9666C257.039 74.2964 225.094 74.2964 225.094 96.6261C225.094 118.956 257.039 118.956 257.039 141.286C257.039 163.615 225.094 163.615 225.094 185.945C225.094 208.275 257.039 208.275 257.039 230.605C257.039 252.934 225.094 252.934 225.094 275.264" stroke="#BABABA" stroke-width="0.75" stroke-miterlimit="10"/>
</g>
</svg>
