<svg width="235" height="111" viewBox="0 0 235 111" fill="none" xmlns="http://www.w3.org/2000/svg">
<rect width="234.997" height="0.276382" transform="matrix(1 0 0 -1 0 9.68896)" fill="#DAEAEA"/>
<rect width="234.997" height="0.276382" transform="matrix(1 0 0 -1 0 6.64844)" fill="#DAEAEA"/>
<rect width="234.997" height="0.276382" transform="matrix(1 0 0 -1 0 3.6084)" fill="#DAEAEA"/>
<rect width="234.997" height="0.276382" transform="matrix(1 0 0 -1 0 0.568359)" fill="#DAEAEA"/>
<rect width="234.997" height="0.552764" transform="matrix(1 0 0 -1 0 16.3228)" fill="#DAEAEA"/>
<rect width="234.997" height="0.552764" transform="matrix(1 0 0 -1 0 13.0063)" fill="#DAEAEA"/>
<rect width="234.997" height="0.552764" transform="matrix(1 0 0 -1 0 19.6396)" fill="#DAEAEA"/>
<rect width="234.997" height="0.552764" transform="matrix(1 0 0 -1 0 22.9556)" fill="#DAEAEA"/>
<rect width="234.997" height="0.829146" transform="matrix(1 0 0 -1 0 26.5488)" fill="#DAEAEA"/>
<rect width="234.997" height="0.829146" transform="matrix(1 0 0 -1 0 30.1416)" fill="#DAEAEA"/>
<rect width="234.997" height="0.829146" transform="matrix(1 0 0 -1 0 33.7344)" fill="#DAEAEA"/>
<rect width="234.997" height="0.829146" transform="matrix(1 0 0 -1 0 37.3271)" fill="#DAEAEA"/>
<rect width="234.997" height="1.38191" transform="matrix(1 0 0 -1 0 41.4736)" fill="#DAEAEA"/>
<rect width="234.997" height="1.38191" transform="matrix(1 0 0 -1 0 45.6187)" fill="#DAEAEA"/>
<rect width="234.997" height="1.38191" transform="matrix(1 0 0 -1 0 49.7646)" fill="#DAEAEA"/>
<rect width="234.997" height="1.38191" transform="matrix(1 0 0 -1 0 53.9106)" fill="#DAEAEA"/>
<rect width="234.997" height="1.65829" transform="matrix(1 0 0 -1 0 58.332)" fill="#DAEAEA"/>
<rect width="234.997" height="1.65829" transform="matrix(1 0 0 -1 0 62.7549)" fill="#DAEAEA"/>
<rect width="234.997" height="1.65829" transform="matrix(1 0 0 -1 0 67.1768)" fill="#DAEAEA"/>
<rect width="234.997" height="1.65829" transform="matrix(1 0 0 -1 0 71.5986)" fill="#DAEAEA"/>
<rect width="234.997" height="1.93467" transform="matrix(1 0 0 -1 0 76.2969)" fill="#DAEAEA"/>
<rect width="234.997" height="1.93467" transform="matrix(1 0 0 -1 0 80.9956)" fill="#DAEAEA"/>
<rect width="234.997" height="1.93467" transform="matrix(1 0 0 -1 0 85.6938)" fill="#DAEAEA"/>
<rect width="234.997" height="1.93467" transform="matrix(1 0 0 -1 0 90.3921)" fill="#DAEAEA"/>
<rect width="234.997" height="2.21106" transform="matrix(1 0 0 -1 0 95.3677)" fill="#DAEAEA"/>
<rect width="234.997" height="2.21106" transform="matrix(1 0 0 -1 0 100.343)" fill="#DAEAEA"/>
<rect width="234.997" height="2.21106" transform="matrix(1 0 0 -1 0 105.317)" fill="#DAEAEA"/>
<rect width="234.997" height="2.21106" transform="matrix(1 0 0 -1 0 110.292)" fill="#DAEAEA"/>
</svg>
