<svg width="235" height="104" viewBox="0 0 235 104" fill="none" xmlns="http://www.w3.org/2000/svg">
<mask id="mask0_3282_1739" style="mask-type:luminance" maskUnits="userSpaceOnUse" x="0" y="0" width="235" height="104">
<path d="M0.48437 0.484375L234.516 0.484365L234.516 103.516L0.484375 103.516L0.48437 0.484375Z" fill="white" stroke="white" stroke-width="0.968766"/>
</mask>
<g mask="url(#mask0_3282_1739)">
<path d="M-25.2202 88.0181C-4.12648 88.0181 -4.12648 100.555 16.9673 100.555C38.061 100.555 38.061 88.0181 59.1547 88.0181C80.2485 88.0181 80.2485 100.555 101.342 100.555C122.436 100.555 122.436 88.0181 143.53 88.0181C164.623 88.0181 164.623 100.555 185.717 100.555C206.811 100.555 206.811 88.0181 227.905 88.0181C248.998 88.0181 248.998 100.555 270.092 100.555" stroke="#B8D6D6" stroke-width="0.242191" stroke-miterlimit="10"/>
<path d="M-35.2847 82.3584C-14.1909 82.3584 -14.1909 94.8955 6.90281 94.8955C27.9966 94.8955 27.9966 82.3584 49.0903 82.3584C70.184 82.3584 70.184 94.8955 91.2778 94.8955C112.372 94.8955 112.372 82.3584 133.465 82.3584C154.559 82.3584 154.559 94.8955 175.653 94.8955C196.746 94.8955 196.746 82.3584 217.84 82.3584C238.934 82.3584 238.934 94.8955 260.028 94.8955" stroke="#B8D6D6" stroke-width="0.726574" stroke-miterlimit="10"/>
<path d="M-25.2202 76.6978C-4.12648 76.6978 -4.12648 89.2349 16.9673 89.2349C38.061 89.2349 38.061 76.6978 59.1547 76.6978C80.2485 76.6978 80.2485 89.2349 101.342 89.2349C122.436 89.2349 122.436 76.6978 143.53 76.6978C164.623 76.6978 164.623 89.2349 185.717 89.2349C206.811 89.2349 206.811 76.6978 227.905 76.6978C248.998 76.6978 248.998 89.2349 270.092 89.2349" stroke="#B8D6D6" stroke-width="0.242191" stroke-miterlimit="10"/>
<path d="M-35.2847 71.0401C-14.1909 71.0401 -14.1909 83.5771 6.90281 83.5771C27.9966 83.5771 27.9966 71.0401 49.0903 71.0401C70.184 71.0401 70.184 83.5771 91.2778 83.5771C112.372 83.5771 112.372 71.0401 133.465 71.0401C154.559 71.0401 154.559 83.5771 175.653 83.5771C196.746 83.5771 196.746 71.0401 217.84 71.0401C238.934 71.0401 238.934 83.5771 260.028 83.5771" stroke="#B8D6D6" stroke-width="0.726574" stroke-miterlimit="10"/>
<path d="M-25.2197 65.3794C-4.12599 65.3794 -4.12599 77.9165 16.9678 77.9165C38.0615 77.9165 38.0615 65.3794 59.1552 65.3794C80.249 65.3794 80.249 77.9165 101.343 77.9165C122.436 77.9165 122.436 65.3794 143.53 65.3794C164.624 65.3794 164.624 77.9165 185.718 77.9165C206.811 77.9165 206.811 65.3794 227.905 65.3794C248.999 65.3794 248.999 77.9165 270.093 77.9165" stroke="#B8D6D6" stroke-width="0.242191" stroke-miterlimit="10"/>
<path d="M-35.2847 59.7198C-14.1909 59.7198 -14.1909 72.2568 6.90281 72.2568C27.9966 72.2568 27.9966 59.7198 49.0903 59.7198C70.184 59.7198 70.184 72.2568 91.2778 72.2568C112.372 72.2568 112.372 59.7197 133.465 59.7197C154.559 59.7197 154.559 72.2568 175.653 72.2568C196.746 72.2568 196.746 59.7197 217.84 59.7197C238.934 59.7197 238.934 72.2568 260.028 72.2568" stroke="#B8D6D6" stroke-width="0.726574" stroke-miterlimit="10"/>
<path d="M-25.2197 54.0606C-4.12599 54.0606 -4.12599 66.5977 16.9678 66.5977C38.0615 66.5977 38.0615 54.0606 59.1552 54.0606C80.249 54.0606 80.249 66.5977 101.343 66.5977C122.436 66.5976 122.436 54.0606 143.53 54.0606C164.624 54.0606 164.624 66.5976 185.718 66.5976C206.811 66.5976 206.811 54.0606 227.905 54.0606C248.999 54.0606 248.999 66.5976 270.093 66.5976" stroke="#B8D6D6" stroke-width="0.242191" stroke-miterlimit="10"/>
<path d="M-35.2847 48.4014C-14.1909 48.4014 -14.1909 60.9385 6.90281 60.9385C27.9966 60.9385 27.9966 48.4014 49.0903 48.4014C70.184 48.4014 70.184 60.9385 91.2778 60.9385C112.372 60.9385 112.372 48.4014 133.465 48.4014C154.559 48.4014 154.559 60.9385 175.653 60.9385C196.746 60.9385 196.746 48.4014 217.84 48.4014C238.934 48.4014 238.934 60.9385 260.028 60.9385" stroke="#B8D6D6" stroke-width="0.726574" stroke-miterlimit="10"/>
<path d="M-25.2202 42.7417C-4.12648 42.7417 -4.12648 55.2788 16.9673 55.2788C38.061 55.2788 38.061 42.7417 59.1547 42.7417C80.2485 42.7417 80.2485 55.2788 101.342 55.2788C122.436 55.2788 122.436 42.7417 143.53 42.7417C164.623 42.7417 164.623 55.2788 185.717 55.2788C206.811 55.2788 206.811 42.7417 227.905 42.7417C248.998 42.7417 248.998 55.2788 270.092 55.2788" stroke="#B8D6D6" stroke-width="0.242191" stroke-miterlimit="10"/>
<path d="M-35.2847 37.0821C-14.1909 37.0821 -14.1909 49.6191 6.90281 49.6191C27.9966 49.6191 27.9966 37.0821 49.0903 37.0821C70.184 37.0821 70.184 49.6191 91.2778 49.6191C112.372 49.6191 112.372 37.0821 133.465 37.0821C154.559 37.0821 154.559 49.6191 175.653 49.6191C196.746 49.6191 196.746 37.0821 217.84 37.0821C238.934 37.0821 238.934 49.6191 260.028 49.6191" stroke="#B8D6D6" stroke-width="0.726574" stroke-miterlimit="10"/>
<path d="M-25.2202 31.4234C-4.12648 31.4234 -4.12648 43.9604 16.9673 43.9604C38.061 43.9604 38.061 31.4234 59.1547 31.4234C80.2485 31.4234 80.2485 43.9604 101.342 43.9604C122.436 43.9604 122.436 31.4234 143.53 31.4234C164.623 31.4234 164.623 43.9604 185.717 43.9604C206.811 43.9604 206.811 31.4234 227.905 31.4234C248.998 31.4234 248.998 43.9604 270.092 43.9604" stroke="#B8D6D6" stroke-width="0.242191" stroke-miterlimit="10"/>
<path d="M-35.2847 25.7637C-14.1909 25.7637 -14.1909 38.3008 6.90281 38.3008C27.9966 38.3008 27.9966 25.7637 49.0903 25.7637C70.184 25.7637 70.184 38.3008 91.2778 38.3008C112.372 38.3008 112.372 25.7637 133.465 25.7637C154.559 25.7637 154.559 38.3008 175.653 38.3008C196.746 38.3008 196.746 25.7637 217.84 25.7637C238.934 25.7637 238.934 38.3008 260.028 38.3008" stroke="#B8D6D6" stroke-width="0.726574" stroke-miterlimit="10"/>
<path d="M-25.2197 20.1035C-4.12599 20.1035 -4.12599 32.6406 16.9678 32.6406C38.0615 32.6406 38.0615 20.1035 59.1552 20.1035C80.249 20.1035 80.249 32.6406 101.343 32.6406C122.436 32.6406 122.436 20.1035 143.53 20.1035C164.624 20.1035 164.624 32.6406 185.718 32.6406C206.811 32.6406 206.811 20.1035 227.905 20.1035C248.999 20.1035 248.999 32.6406 270.093 32.6406" stroke="#B8D6D6" stroke-width="0.242191" stroke-miterlimit="10"/>
<path d="M-35.2847 14.4439C-14.1909 14.4439 -14.1909 26.981 6.90281 26.981C27.9966 26.981 27.9966 14.4439 49.0903 14.4439C70.184 14.4439 70.184 26.981 91.2778 26.981C112.372 26.981 112.372 14.4439 133.465 14.4439C154.559 14.4439 154.559 26.9809 175.653 26.9809C196.746 26.9809 196.746 14.4439 217.84 14.4439C238.934 14.4439 238.934 26.9809 260.028 26.9809" stroke="#B8D6D6" stroke-width="0.726574" stroke-miterlimit="10"/>
<path d="M-25.2197 8.78421C-4.12599 8.78421 -4.12599 21.3213 16.9678 21.3213C38.0615 21.3213 38.0615 8.78421 59.1552 8.78421C80.249 8.7842 80.249 21.3213 101.343 21.3213C122.436 21.3213 122.436 8.7842 143.53 8.7842C164.624 8.7842 164.624 21.3213 185.718 21.3213C206.811 21.3213 206.811 8.7842 227.905 8.7842C248.999 8.7842 248.999 21.3213 270.093 21.3213" stroke="#B8D6D6" stroke-width="0.242191" stroke-miterlimit="10"/>
<path d="M-35.2847 3.12357C-14.1909 3.12357 -14.1909 15.6606 6.90281 15.6606C27.9966 15.6606 27.9966 3.12357 49.0903 3.12357C70.184 3.12357 70.184 15.6606 91.2778 15.6606C112.372 15.6606 112.372 3.12357 133.465 3.12357C154.559 3.12357 154.559 15.6606 175.653 15.6606C196.746 15.6606 196.746 3.12356 217.84 3.12356C238.934 3.12356 238.934 15.6606 260.028 15.6606" stroke="#B8D6D6" stroke-width="0.726574" stroke-miterlimit="10"/>
</g>
</svg>
