<svg width="26" height="20" viewBox="0 0 26 20" fill="none" xmlns="http://www.w3.org/2000/svg">
<path d="M9.3762 0.757588C9.72048 0.413594 10.2916 0.41342 10.6357 0.757588C10.9799 1.10176 10.9797 1.67285 10.6357 2.01712L3.52807 9.12479L24.8925 9.1241C25.3793 9.12411 25.7823 9.52748 25.7826 10.0142C25.7826 10.2661 25.6818 10.4851 25.5223 10.6447C25.3627 10.8042 25.1444 10.9043 24.8925 10.9043L3.53567 10.9043L10.6357 18.0044C10.9797 18.3486 10.9799 18.9197 10.6357 19.2639C10.2916 19.6081 9.72048 19.6079 9.3762 19.2639L0.741765 10.6295C0.587659 10.469 0.492483 10.2512 0.492483 10.0142C0.492529 9.94441 0.501683 9.87657 0.517342 9.81118C0.552999 9.65286 0.631121 9.50267 0.752814 9.38098L9.3762 0.757588Z" fill="#203D4D"/>
</svg>
