<svg width="13" height="18" viewBox="0 0 13 18" fill="none" xmlns="http://www.w3.org/2000/svg">
<path d="M0.450287 11.4505C0.225881 11.2261 0.225518 10.8539 0.449597 10.6295C0.67401 10.4051 1.04681 10.405 1.27133 10.6295L5.90689 15.265L5.90343 1.3349C5.90336 1.0174 6.166 0.754842 6.48348 0.754851C6.64772 0.754889 6.79031 0.81999 6.89435 0.924032C6.99839 1.02808 7.06349 1.17066 7.06353 1.3349L7.06698 15.2595L11.6949 10.6316C11.9193 10.4072 12.2915 10.4079 12.516 10.6322C12.7405 10.8568 12.7411 11.2289 12.5167 11.4533L6.89504 17.0749C6.85848 17.1114 6.81732 17.1408 6.7742 17.1654C6.68919 17.2146 6.59178 17.2448 6.48763 17.2448C6.43957 17.2448 6.39296 17.2368 6.34814 17.2255C6.2474 17.2015 6.15162 17.1519 6.074 17.0742L0.450287 11.4505Z" fill="white"/>
</svg>
