<svg width="12" height="12" viewBox="0 0 12 12" fill="none" xmlns="http://www.w3.org/2000/svg">
<path d="M3.4668 -0.000488281C3.14961 -0.00024064 2.88672 0.263327 2.88672 0.580566C2.88698 0.897598 3.14976 1.1604 3.4668 1.16064H10.0195L0.171875 11.0093C-0.0526194 11.2338 -0.0526188 11.6051 0.171875 11.8296C0.287993 11.9457 0.434948 12.0005 0.582031 12.0005C0.729008 12.0004 0.876153 11.9456 0.992188 11.8296L10.8369 1.98486V8.53076C10.8372 8.8478 11.1 9.11058 11.417 9.11084C11.7342 9.11084 11.9978 8.84795 11.998 8.53076V0.580566C11.998 0.527648 11.9893 0.476183 11.9756 0.427246C11.95 0.333463 11.9029 0.244243 11.8301 0.171387C11.7961 0.137367 11.7575 0.110135 11.7178 0.0864258C11.6296 0.0321666 11.5267 -0.000488281 11.417 -0.000488281H3.4668Z" fill="#203D4D"/>
</svg>
