<svg width="26" height="20" viewBox="0 0 26 20" fill="none" xmlns="http://www.w3.org/2000/svg">
<path d="M17.1219 0.440903C16.7776 0.0913278 16.2066 0.091295 15.8624 0.440903C15.5184 0.790484 15.5184 1.37021 15.8624 1.71977L22.97 8.93792L1.6056 8.93862C1.11861 8.93863 0.715499 9.34794 0.715499 9.84252C0.715621 10.098 0.816508 10.3194 0.97583 10.4813C1.13536 10.6433 1.35371 10.7464 1.6056 10.7464L22.9617 10.7457L15.8631 17.9563C15.5188 18.3059 15.5188 18.8855 15.8631 19.2352C16.2073 19.5846 16.7784 19.5847 17.1226 19.2352L25.7453 10.4771C25.7937 10.4279 25.8348 10.3739 25.8696 10.3169C25.9551 10.1784 26.0055 10.016 26.0056 9.84252C26.0056 9.76781 25.996 9.69471 25.9787 9.625C25.942 9.46798 25.8644 9.31923 25.7453 9.19825L17.1219 0.440903Z" fill="#EDF3F3"/>
</svg>
