<svg width="26" height="20" viewBox="0 0 26 20" fill="none" xmlns="http://www.w3.org/2000/svg">
<path d="M9.57342 0.440903C9.91768 0.0913278 10.4887 0.091295 10.833 0.440903C11.1769 0.790484 11.1769 1.37021 10.833 1.71977L3.72529 8.93792L25.0897 8.93862C25.5767 8.93863 25.9798 9.34794 25.9798 9.84252C25.9797 10.098 25.8788 10.3194 25.7195 10.4813C25.56 10.6433 25.3416 10.7464 25.0897 10.7464L3.73357 10.7457L10.8323 17.9563C11.1765 18.3059 11.1765 18.8855 10.8323 19.2352C10.488 19.5846 9.91692 19.5847 9.57273 19.2352L0.950029 10.4771C0.901615 10.4279 0.86052 10.3739 0.825733 10.3169C0.740248 10.1784 0.689787 10.016 0.689698 9.84252C0.689698 9.76781 0.699335 9.69471 0.716629 9.625C0.753314 9.46798 0.830915 9.31923 0.950029 9.19825L9.57342 0.440903Z" fill="#EDF3F3"/>
</svg>
