<svg width="26" height="20" viewBox="0 0 26 20" fill="none" xmlns="http://www.w3.org/2000/svg">
<path d="M16.9236 0.757588C16.5793 0.413594 16.0082 0.41342 15.6641 0.757588C15.3199 1.10176 15.3201 1.67285 15.6641 2.01712L22.7717 9.12479L1.4073 9.1241C0.920517 9.12411 0.517533 9.52748 0.517207 10.0142C0.517207 10.2661 0.618006 10.4851 0.777538 10.6447C0.937065 10.8042 1.15544 10.9043 1.4073 10.9043L22.7641 10.9043L15.6641 18.0044C15.3201 18.3486 15.3199 18.9197 15.6641 19.2639C16.0082 19.6081 16.5793 19.6079 16.9236 19.2639L25.558 10.6295C25.7121 10.469 25.8073 10.2512 25.8073 10.0142C25.8073 9.94441 25.7981 9.87657 25.7825 9.81118C25.7468 9.65286 25.6687 9.50267 25.547 9.38098L16.9236 0.757588Z" fill="#203D4D"/>
</svg>
