<svg width="15" height="13" viewBox="0 0 15 13" fill="none" xmlns="http://www.w3.org/2000/svg">
<path d="M4.87402 0.270752C4.51243 0.270752 4.21191 0.534418 4.21191 0.851807C4.21221 1.16899 4.51261 1.43188 4.87402 1.43188H12.3389L1.11914 11.2805C0.86342 11.505 0.863503 11.8763 1.11914 12.1008C1.25131 12.2168 1.41852 12.2716 1.58594 12.2717C1.75351 12.2717 1.92142 12.2169 2.05371 12.1008L13.2695 2.25708V8.802C13.2698 9.11919 13.5702 9.38208 13.9316 9.38208C14.2929 9.38192 14.5925 9.1191 14.5928 8.802V0.851807C14.5928 0.846393 14.591 0.840586 14.5908 0.835205C14.5858 0.692315 14.524 0.550309 14.4014 0.442627C14.3756 0.420033 14.3472 0.401103 14.3184 0.383057C14.2091 0.312928 14.0754 0.270814 13.9316 0.270752H4.87402Z" fill="#EDF3F3"/>
</svg>
