<svg width="21" height="20" viewBox="0 0 21 20" fill="none" xmlns="http://www.w3.org/2000/svg">
<g clip-path="url(#clip0_3037_3789)">
<path d="M17.5251 10.7143H5.83939L4.41082 3.57142H18.6965C18.801 3.57181 18.9041 3.5951 18.9986 3.63966C19.0931 3.68423 19.1767 3.74898 19.2434 3.82935C19.3102 3.90971 19.3585 4.00375 19.3849 4.10481C19.4114 4.20588 19.4153 4.31152 19.3965 4.41428L18.2251 10.1286C18.1978 10.2938 18.1121 10.4437 17.9837 10.5512C17.8553 10.6587 17.6926 10.7165 17.5251 10.7143V10.7143Z" stroke="white" stroke-linecap="round" stroke-linejoin="round"/>
<path d="M4.41113 3.57142L3.81113 1.2857C3.7782 1.12437 3.69054 0.979362 3.56298 0.875232C3.43542 0.771102 3.2758 0.714242 3.11113 0.714275H0.839704" stroke="white" stroke-linecap="round" stroke-linejoin="round"/>
<path d="M5.83984 10.7143L6.43984 13.7143C6.47278 13.8756 6.56044 14.0206 6.688 14.1248C6.81556 14.2289 6.97518 14.2857 7.13984 14.2857H15.8398" stroke="white" stroke-linecap="round" stroke-linejoin="round"/>
<path d="M15.1256 19.2857C14.7311 19.2857 14.4113 18.9659 14.4113 18.5714C14.4113 18.1769 14.7311 17.8571 15.1256 17.8571C15.52 17.8571 15.8398 18.1769 15.8398 18.5714C15.8398 18.9659 15.52 19.2857 15.1256 19.2857Z" stroke="white" stroke-linecap="round" stroke-linejoin="round"/>
<path d="M7.982 19.2857C7.58751 19.2857 7.26772 18.9659 7.26772 18.5714C7.26772 18.1769 7.58751 17.8571 7.982 17.8571C8.37649 17.8571 8.69629 18.1769 8.69629 18.5714C8.69629 18.9659 8.37649 19.2857 7.982 19.2857Z" stroke="white" stroke-linecap="round" stroke-linejoin="round"/>
</g>
<defs>
<clipPath id="clip0_3037_3789">
<rect width="20" height="20" fill="white" transform="matrix(-1 0 0 1 20.125 0)"/>
</clipPath>
</defs>
</svg>
