<svg width="20" height="20" viewBox="0 0 20 20" fill="none" xmlns="http://www.w3.org/2000/svg">
<g clip-path="url(#clip0_3050_4960)">
<path d="M17.4001 10.7143H5.71439L4.28582 3.57142H18.5715C18.676 3.57181 18.7791 3.5951 18.8736 3.63966C18.9681 3.68423 19.0517 3.74898 19.1184 3.82935C19.1852 3.90971 19.2335 4.00375 19.2599 4.10481C19.2864 4.20588 19.2903 4.31152 19.2715 4.41428L18.1001 10.1286C18.0728 10.2938 17.9871 10.4437 17.8587 10.5512C17.7303 10.6587 17.5676 10.7165 17.4001 10.7143V10.7143Z" stroke="#203D4D" stroke-linecap="round" stroke-linejoin="round"/>
<path d="M4.28613 3.57142L3.68613 1.2857C3.6532 1.12437 3.56554 0.979362 3.43798 0.875232C3.31042 0.771102 3.1508 0.714242 2.98613 0.714275H0.714704" stroke="#203D4D" stroke-linecap="round" stroke-linejoin="round"/>
<path d="M5.71484 10.7143L6.31484 13.7143C6.34778 13.8756 6.43544 14.0206 6.563 14.1247C6.69056 14.2289 6.85018 14.2857 7.01484 14.2857H15.7148" stroke="#203D4D" stroke-linecap="round" stroke-linejoin="round"/>
<path d="M15.0006 19.2857C14.6061 19.2857 14.2863 18.9659 14.2863 18.5714C14.2863 18.1769 14.6061 17.8571 15.0006 17.8571C15.395 17.8571 15.7148 18.1769 15.7148 18.5714C15.7148 18.9659 15.395 19.2857 15.0006 19.2857Z" stroke="#203D4D" stroke-linecap="round" stroke-linejoin="round"/>
<path d="M7.857 19.2857C7.46251 19.2857 7.14272 18.9659 7.14272 18.5714C7.14272 18.1769 7.46251 17.8571 7.857 17.8571C8.25149 17.8571 8.57129 18.1769 8.57129 18.5714C8.57129 18.9659 8.25149 19.2857 7.857 19.2857Z" stroke="#203D4D" stroke-linecap="round" stroke-linejoin="round"/>
</g>
<defs>
<clipPath id="clip0_3050_4960">
<rect width="20" height="20" fill="white" transform="matrix(-1 0 0 1 20 0)"/>
</clipPath>
</defs>
</svg>
