<svg width="65" height="65" viewBox="0 0 65 65" fill="none" xmlns="http://www.w3.org/2000/svg">
<path d="M32.7871 1.43262C50.0619 1.43262 64.0664 15.4371 64.0664 32.7119C64.0664 49.9867 50.0619 63.9912 32.7871 63.9912C15.5123 63.9912 1.50781 49.9867 1.50781 32.7119C1.50781 15.4371 15.5123 1.43262 32.7871 1.43262Z" stroke="#EDF3F3" stroke-width="1.44231"/>
<path d="M46.7979 36.9719C46.7979 44.8128 40.4929 51.1701 32.7163 51.1701C24.9398 51.1701 18.6348 44.8128 18.6348 36.9719C18.6348 29.1309 32.7163 14.2471 32.7163 14.2471C32.7163 14.2471 46.7979 29.1309 46.7979 36.9719Z" stroke="#EDF3F3" stroke-width="1.44231" stroke-miterlimit="10" stroke-linecap="round"/>
<path d="M42.9877 27.3174C43.3322 28.4161 43.5371 29.449 43.5371 30.3787C43.5371 38.2196 37.2321 44.5769 29.4556 44.5769C25.2646 44.5769 21.5021 42.7364 18.9316 39.7972" stroke="#EDF3F3" stroke-width="1.44231" stroke-miterlimit="10" stroke-linecap="round"/>
</svg>
