<svg width="17" height="16" viewBox="0 0 17 16" fill="none" xmlns="http://www.w3.org/2000/svg">
<g clip-path="url(#clip0_3037_3426)">
<path d="M8.67676 1.5V14.5" stroke="#EDF3F3" stroke-linecap="round" stroke-linejoin="round"/>
<path d="M12.1768 5.5C12.1768 5.1717 12.1121 4.84661 11.9865 4.54329C11.8608 4.23998 11.6767 3.96438 11.4445 3.73223C11.2124 3.50009 10.9368 3.31594 10.6335 3.1903C10.3302 3.06466 10.0051 3 9.67676 3H7.67676C7.01372 3 6.37783 3.26339 5.90899 3.73223C5.44015 4.20107 5.17676 4.83696 5.17676 5.5C5.17676 6.16304 5.44015 6.79893 5.90899 7.26777C6.37783 7.73661 7.01372 8 7.67676 8H10.1768C10.8398 8 11.4757 8.26339 11.9445 8.73223C12.4134 9.20107 12.6768 9.83696 12.6768 10.5C12.6768 11.163 12.4134 11.7989 11.9445 12.2678C11.4757 12.7366 10.8398 13 10.1768 13H7.17676C6.51372 13 5.87783 12.7366 5.40899 12.2678C4.94015 11.7989 4.67676 11.163 4.67676 10.5" stroke="#EDF3F3" stroke-linecap="round" stroke-linejoin="round"/>
</g>
<defs>
<clipPath id="clip0_3037_3426">
<rect width="16" height="16" fill="white" transform="translate(0.676758)"/>
</clipPath>
</defs>
</svg>
