<svg width="64" height="65" viewBox="0 0 64 65" fill="none" xmlns="http://www.w3.org/2000/svg">
<path d="M32 1.61426C49.2748 1.61426 63.2793 15.6187 63.2793 32.8936C63.2793 50.1684 49.2748 64.1729 32 64.1729C14.7252 64.1728 0.720703 50.1684 0.720703 32.8936C0.720703 15.6187 14.7252 1.61426 32 1.61426Z" stroke="#EDF3F3" stroke-width="1.44231"/>
<path d="M19.184 25.8599L19.8786 26.2767L19.184 25.8599ZM21.6017 21.8304L22.2963 22.2472L21.6017 21.8304ZM42.3983 21.8304L41.7037 22.2472V22.2472L42.3983 21.8304ZM44.816 25.8599L44.1214 26.2767L44.816 25.8599ZM40.2141 19.6422L39.9677 20.4138V20.4138L40.2141 19.6422ZM41.2824 20.2471L41.8173 19.6388V19.6388L41.2824 20.2471ZM22.7176 20.2471L23.2524 20.8554L23.2524 20.8554L22.7176 20.2471ZM23.7859 19.6422L23.5395 18.8706L23.5395 18.8706L23.7859 19.6422ZM45.4607 27.3467L44.6613 27.4775V27.4775L45.4607 27.3467ZM45.2879 26.7229L46.0406 26.4238L46.0406 26.4238L45.2879 26.7229ZM43.862 46.173L43.4942 45.4513H43.4942L43.862 46.173ZM45.173 44.862L44.4513 44.4942V44.4942L45.173 44.862ZM18.827 44.862L18.1053 45.2297L18.1053 45.2297L18.827 44.862ZM20.138 46.173L20.5058 45.4513H20.5058L20.138 46.173ZM18.5393 27.3467L17.74 27.216L18.5393 27.3467ZM18.7121 26.7229L17.9594 26.4238L18.7121 26.7229ZM20 26.19C19.5526 26.19 19.19 26.5526 19.19 27C19.19 27.4474 19.5526 27.81 20 27.81V26.19ZM44 27.81C44.4473 27.81 44.81 27.4474 44.81 27C44.81 26.5526 44.4473 26.19 44 26.19V27.81ZM29 32.19C28.5526 32.19 28.19 32.5526 28.19 33C28.19 33.4473 28.5526 33.81 29 33.81V32.19ZM35 33.81C35.4473 33.81 35.81 33.4473 35.81 33C35.81 32.5526 35.4473 32.19 35 32.19V33.81ZM31.19 27C31.19 27.4474 31.5526 27.81 32 27.81C32.4473 27.81 32.81 27.4474 32.81 27H31.19ZM32.81 19.5C32.81 19.0526 32.4473 18.69 32 18.69C31.5526 18.69 31.19 19.0526 31.19 19.5H32.81ZM18.5 28.3295H17.69V41.7H18.5H19.31V28.3295H18.5ZM23.3 46.5V47.31H40.7V46.5V45.69H23.3V46.5ZM45.5 41.7H46.31V28.3295H45.5H44.69V41.7H45.5ZM19.184 25.8599L19.8786 26.2767L22.2963 22.2472L21.6017 21.8304L20.9072 21.4137L18.4895 25.4432L19.184 25.8599ZM25.7177 19.5V20.31H38.2823V19.5V18.69H25.7177V19.5ZM42.3983 21.8304L41.7037 22.2472L44.1214 26.2767L44.816 25.8599L45.5105 25.4432L43.0928 21.4137L42.3983 21.8304ZM38.2823 19.5V20.31C39.3268 20.31 39.6711 20.3191 39.9677 20.4138L40.2141 19.6422L40.4605 18.8706C39.8665 18.6809 39.2198 18.69 38.2823 18.69V19.5ZM42.3983 21.8304L43.0928 21.4137C42.6105 20.6098 42.2855 20.0505 41.8173 19.6388L41.2824 20.2471L40.7476 20.8554C40.9813 21.0609 41.1663 21.3515 41.7037 22.2472L42.3983 21.8304ZM40.2141 19.6422L39.9677 20.4138C40.2553 20.5057 40.5208 20.656 40.7476 20.8554L41.2824 20.2471L41.8173 19.6388C41.4228 19.2919 40.9609 19.0304 40.4605 18.8706L40.2141 19.6422ZM21.6017 21.8304L22.2963 22.2472C22.8337 21.3515 23.0187 21.0609 23.2524 20.8554L22.7176 20.2471L22.1827 19.6388C21.7145 20.0505 21.3895 20.6098 20.9072 21.4137L21.6017 21.8304ZM25.7177 19.5V18.69C24.7802 18.69 24.1335 18.6809 23.5395 18.8706L23.7859 19.6422L24.0323 20.4138C24.3289 20.3191 24.6732 20.31 25.7177 20.31V19.5ZM22.7176 20.2471L23.2524 20.8554C23.4792 20.656 23.7447 20.5057 24.0323 20.4138L23.7859 19.6422L23.5395 18.8706C23.0391 19.0304 22.5772 19.2919 22.1827 19.6388L22.7176 20.2471ZM45.5 28.3295H46.31C46.31 27.8601 46.3124 27.5363 46.26 27.216L45.4607 27.3467L44.6613 27.4775C44.6876 27.6381 44.69 27.8092 44.69 28.3295H45.5ZM44.816 25.8599L44.1214 26.2767C44.3891 26.7228 44.475 26.8708 44.5352 27.0221L45.2879 26.7229L46.0406 26.4238C45.9207 26.1221 45.752 25.8457 45.5105 25.4432L44.816 25.8599ZM45.4607 27.3467L46.26 27.216C46.2157 26.9448 46.1421 26.6792 46.0406 26.4238L45.2879 26.7229L44.5352 27.0221C44.5935 27.1689 44.6358 27.3216 44.6613 27.4775L45.4607 27.3467ZM40.7 46.5V47.31C41.5267 47.31 42.1955 47.3106 42.7364 47.2664C43.2867 47.2215 43.7756 47.1261 44.2297 46.8947L43.862 46.173L43.4942 45.4513C43.3066 45.5469 43.0546 45.615 42.6044 45.6518C42.1448 45.6894 41.5534 45.69 40.7 45.69V46.5ZM45.5 41.7H44.69C44.69 42.5534 44.6894 43.1448 44.6518 43.6044C44.615 44.0546 44.5469 44.3066 44.4513 44.4942L45.173 44.862L45.8947 45.2297C46.1261 44.7756 46.2215 44.2867 46.2664 43.7364C46.3106 43.1955 46.31 42.5267 46.31 41.7H45.5ZM43.862 46.173L44.2297 46.8947C44.9466 46.5295 45.5295 45.9466 45.8947 45.2297L45.173 44.862L44.4513 44.4942C44.2413 44.9063 43.9063 45.2413 43.4942 45.4513L43.862 46.173ZM18.5 41.7H17.69C17.69 42.5267 17.6894 43.1955 17.7336 43.7364C17.7785 44.2867 17.8739 44.7756 18.1053 45.2297L18.827 44.862L19.5487 44.4942C19.4531 44.3066 19.385 44.0546 19.3482 43.6044C19.3106 43.1448 19.31 42.5534 19.31 41.7H18.5ZM23.3 46.5V45.69C22.4466 45.69 21.8552 45.6894 21.3956 45.6518C20.9454 45.615 20.6934 45.5469 20.5058 45.4513L20.138 46.173L19.7703 46.8947C20.2244 47.1261 20.7133 47.2215 21.2636 47.2664C21.8045 47.3106 22.4733 47.31 23.3 47.31V46.5ZM18.827 44.862L18.1053 45.2297C18.4705 45.9466 19.0534 46.5295 19.7703 46.8947L20.138 46.173L20.5058 45.4513C20.0937 45.2413 19.7587 44.9063 19.5487 44.4942L18.827 44.862ZM18.5 28.3295H19.31C19.31 27.8092 19.3124 27.6381 19.3387 27.4774L18.5393 27.3467L17.74 27.216C17.6876 27.5363 17.69 27.8601 17.69 28.3295H18.5ZM19.184 25.8599L18.4895 25.4432C18.248 25.8457 18.0793 26.1221 17.9594 26.4238L18.7121 26.7229L19.4648 27.0221C19.525 26.8708 19.6109 26.7228 19.8786 26.2767L19.184 25.8599ZM18.5393 27.3467L19.3387 27.4774C19.3642 27.3216 19.4065 27.1689 19.4648 27.0221L18.7121 26.7229L17.9594 26.4238C17.8579 26.6792 17.7843 26.9448 17.74 27.216L18.5393 27.3467ZM20 27V27.81H44V27V26.19H20V27ZM29 33V33.81H35V33V32.19H29V33ZM32 27H32.81V19.5H32H31.19V27H32Z" fill="#EDF3F3"/>
</svg>
