<svg width="64" height="65" viewBox="0 0 64 65" fill="none" xmlns="http://www.w3.org/2000/svg">
<path d="M32 1.61426C49.2748 1.61426 63.2793 15.6187 63.2793 32.8936C63.2793 50.1684 49.2748 64.1729 32 64.1729C14.7252 64.1728 0.720703 50.1684 0.720703 32.8936C0.720703 15.6187 14.7252 1.61426 32 1.61426Z" stroke="#EDF3F3" stroke-width="1.44231"/>
<path fill-rule="evenodd" clip-rule="evenodd" d="M32.2586 15.5149L31.7408 16.0353L31.2228 15.515L31.7406 15L32.2586 15.5149ZM31.7409 17.0846C31.4472 17.3892 31.0422 17.8156 30.5617 18.338C29.5384 19.4507 28.1758 20.9955 26.8152 22.7273C25.4523 24.4618 24.1034 26.3688 23.0986 28.2068C22.0825 30.0652 21.4687 31.7638 21.4687 33.1054C21.4687 38.8293 26.0753 43.4626 31.7408 43.4626C37.4062 43.4626 42.0128 38.8293 42.0128 33.1054C42.0128 31.762 41.3989 30.0624 40.383 28.2038C39.3781 26.3655 38.0293 24.4589 36.6665 22.7248C35.3058 20.9934 33.9433 19.4493 32.92 18.3372C32.4395 17.8151 32.0347 17.389 31.7409 17.0846ZM41.6719 27.5001C42.7196 29.4168 43.4816 31.3836 43.4816 33.1054C43.4816 39.6285 38.2288 44.9305 31.7408 44.9305C25.2528 44.9305 20 39.6285 20 33.1054C20 31.3852 20.762 29.4192 21.8097 27.5029C22.8685 25.5662 24.2712 23.5883 25.66 21.8207C27.0509 20.0505 28.44 18.4759 29.4804 17.3447C30.0009 16.7787 30.4351 16.3227 30.7397 16.0076C30.8921 15.85 31.0121 15.7276 31.0944 15.6443C31.1355 15.6026 31.1672 15.5707 31.1889 15.549L31.2136 15.5241L31.2228 15.515C31.2229 15.5149 31.2228 15.515 31.7408 16.0353C32.2586 15.5149 32.2585 15.5147 32.2586 15.5149L32.2678 15.524L32.2925 15.5488C32.3142 15.5705 32.3459 15.6024 32.387 15.644C32.4693 15.7274 32.5893 15.8497 32.7417 16.0072C33.0463 16.3221 33.4805 16.7778 34.0011 17.3436C35.0415 18.4743 36.4306 20.0482 37.8215 21.8181C39.2103 23.5852 40.613 25.5629 41.6719 27.5001Z" fill="#EDF3F3"/>
<path fill-rule="evenodd" clip-rule="evenodd" d="M31.7436 22.1699C32.1522 22.1699 32.4834 22.4981 32.4834 22.903V50.2672C32.4834 50.6721 32.1522 51.0003 31.7436 51.0003C31.3351 51.0003 31.0039 50.6721 31.0039 50.2672V22.903C31.0039 22.4981 31.3351 22.1699 31.7436 22.1699Z" fill="#EDF3F3"/>
<path fill-rule="evenodd" clip-rule="evenodd" d="M38.1833 31.7152C38.4721 32.0013 38.474 32.467 38.1876 32.7554L32.2635 38.7196C31.977 39.008 31.5107 39.0099 31.2218 38.7239C30.933 38.4378 30.931 37.9721 31.2175 37.6837L37.1416 31.7195C37.428 31.4311 37.8944 31.4292 38.1833 31.7152Z" fill="#EDF3F3"/>
<path fill-rule="evenodd" clip-rule="evenodd" d="M26.631 27.922C26.9186 27.635 27.383 27.6369 27.6682 27.9263L32.2709 32.5958C32.5562 32.8852 32.5542 33.3524 32.2667 33.6394C31.9791 33.9264 31.5147 33.9245 31.2295 33.6351L26.6267 28.9656C26.3415 28.6762 26.3434 28.209 26.631 27.922Z" fill="#EDF3F3"/>
</svg>
