<svg width="18" height="18" viewBox="0 0 18 18" fill="none" xmlns="http://www.w3.org/2000/svg">
<path d="M9 0.875C7.39303 0.875 5.82214 1.35152 4.486 2.24431C3.14985 3.1371 2.10844 4.40605 1.49348 5.8907C0.87852 7.37535 0.717618 9.00901 1.03112 10.5851C1.34463 12.1612 2.11846 13.6089 3.25476 14.7452C4.39106 15.8815 5.8388 16.6554 7.4149 16.9689C8.99099 17.2824 10.6247 17.1215 12.1093 16.5065C13.594 15.8916 14.8629 14.8502 15.7557 13.514C16.6485 12.1779 17.125 10.607 17.125 9C17.1225 6.84588 16.2657 4.78069 14.7425 3.2575C13.2193 1.7343 11.1541 0.877481 9 0.875ZM15.8453 8.375H12.7336C12.5938 5.52266 11.4953 3.50547 10.5945 2.3125C11.9932 2.64837 13.2516 3.41357 14.1934 4.50079C15.1352 5.58802 15.7131 6.94274 15.8461 8.375H15.8453ZM6.51797 9.625H11.482C11.3016 12.8758 9.74532 14.868 9 15.6406C8.25391 14.8672 6.69844 12.875 6.51797 9.625ZM6.51797 8.375C6.69844 5.12422 8.25469 3.13203 9 2.35938C9.7461 3.13516 11.3016 5.12734 11.482 8.375H6.51797ZM7.40547 2.3125C6.50469 3.50547 5.40625 5.52266 5.26641 8.375H2.15391C2.28687 6.94274 2.86477 5.58802 3.80657 4.50079C4.74836 3.41357 6.00682 2.64837 7.40547 2.3125ZM2.15391 9.625H5.26641C5.4086 12.4773 6.50469 14.4945 7.40547 15.6875C6.00682 15.3516 4.74836 14.5864 3.80657 13.4992C2.86477 12.412 2.28687 11.0573 2.15391 9.625ZM10.5914 15.6875C11.4922 14.4945 12.5883 12.4773 12.7305 9.625H15.843C15.7102 11.0568 15.1328 12.4113 14.1916 13.4984C13.2504 14.5856 11.9926 15.3511 10.5945 15.6875H10.5914Z" fill="white"/>
</svg>
