<svg width="20" height="20" viewBox="0 0 20 20" fill="none" xmlns="http://www.w3.org/2000/svg">
<path d="M10 1.875C8.39303 1.875 6.82214 2.35152 5.486 3.24431C4.14985 4.1371 3.10844 5.40605 2.49348 6.8907C1.87852 8.37535 1.71762 10.009 2.03112 11.5851C2.34463 13.1612 3.11846 14.6089 4.25476 15.7452C5.39106 16.8815 6.8388 17.6554 8.4149 17.9689C9.99099 18.2824 11.6247 18.1215 13.1093 17.5065C14.594 16.8916 15.8629 15.8502 16.7557 14.514C17.6485 13.1779 18.125 11.607 18.125 10C18.1225 7.84588 17.2657 5.78069 15.7425 4.2575C14.2193 2.7343 12.1541 1.87748 10 1.875ZM16.8453 9.375H13.7336C13.5938 6.52266 12.4953 4.50547 11.5945 3.3125C12.9932 3.64837 14.2516 4.41357 15.1934 5.50079C16.1352 6.58802 16.7131 7.94274 16.8461 9.375H16.8453ZM7.51797 10.625H12.482C12.3016 13.8758 10.7453 15.868 10 16.6406C9.25391 15.8672 7.69844 13.875 7.51797 10.625ZM7.51797 9.375C7.69844 6.12422 9.25469 4.13203 10 3.35938C10.7461 4.13516 12.3016 6.12734 12.482 9.375H7.51797ZM8.40547 3.3125C7.50469 4.50547 6.40625 6.52266 6.26641 9.375H3.15391C3.28687 7.94274 3.86477 6.58802 4.80657 5.50079C5.74836 4.41357 7.00682 3.64837 8.40547 3.3125ZM3.15391 10.625H6.26641C6.4086 13.4773 7.50469 15.4945 8.40547 16.6875C7.00682 16.3516 5.74836 15.5864 4.80657 14.4992C3.86477 13.412 3.28687 12.0573 3.15391 10.625ZM11.5914 16.6875C12.4922 15.4945 13.5883 13.4773 13.7305 10.625H16.843C16.7102 12.0568 16.1328 13.4113 15.1916 14.4984C14.2504 15.5856 12.9926 16.3511 11.5945 16.6875H11.5914Z" fill="#203D4D"/>
</svg>
