<svg width="65" height="65" viewBox="0 0 65 65" fill="none" xmlns="http://www.w3.org/2000/svg">
<path d="M32.4648 1.4043C49.7397 1.4043 63.7441 15.4088 63.7441 32.6836C63.7441 49.9584 49.7397 63.9629 32.4648 63.9629C15.19 63.9629 1.18555 49.9584 1.18555 32.6836C1.18555 15.4088 15.19 1.4043 32.4648 1.4043Z" stroke="#203D4D" stroke-width="1.44231"/>
<path d="M46.4756 36.9465C46.4756 44.7875 40.1706 51.1448 32.3941 51.1448C24.6175 51.1448 18.3125 44.7875 18.3125 36.9465C18.3125 29.1055 32.3941 14.2217 32.3941 14.2217C32.3941 14.2217 46.4756 29.1055 46.4756 36.9465Z" stroke="#203D4D" stroke-width="1.44231" stroke-miterlimit="10" stroke-linecap="round"/>
<path d="M42.6673 27.2935C43.0119 28.3921 43.2168 29.4251 43.2168 30.3547C43.2168 38.1957 36.9118 44.553 29.1353 44.553C24.9443 44.553 21.1818 42.7125 18.6113 39.7733" stroke="#203D4D" stroke-width="1.44231" stroke-miterlimit="10" stroke-linecap="round"/>
</svg>
