<svg width="28" height="29" viewBox="0 0 28 29" fill="none" xmlns="http://www.w3.org/2000/svg">
<path d="M14 2.81894C17.7406 2.81894 18.1836 2.83535 19.6547 2.90098C21.0219 2.96113 21.7602 3.19082 22.2523 3.38223C22.9031 3.63379 23.3734 3.94004 23.8602 4.42676C24.3523 4.91895 24.6531 5.38379 24.9047 6.03457C25.0961 6.52676 25.3258 7.27051 25.3859 8.63223C25.4516 10.1088 25.468 10.5518 25.468 14.2869C25.468 18.0275 25.4516 18.4705 25.3859 19.9416C25.3258 21.3088 25.0961 22.0471 24.9047 22.5393C24.6531 23.19 24.3469 23.6604 23.8602 24.1471C23.368 24.6393 22.9031 24.94 22.2523 25.1916C21.7602 25.383 21.0164 25.6127 19.6547 25.6729C18.1781 25.7385 17.7352 25.7549 14 25.7549C10.2594 25.7549 9.81641 25.7385 8.34531 25.6729C6.97813 25.6127 6.23984 25.383 5.74766 25.1916C5.09688 24.94 4.62656 24.6338 4.13984 24.1471C3.64766 23.6549 3.34687 23.19 3.09531 22.5393C2.90391 22.0471 2.67422 21.3033 2.61406 19.9416C2.54844 18.465 2.53203 18.0221 2.53203 14.2869C2.53203 10.5463 2.54844 10.1033 2.61406 8.63223C2.67422 7.26504 2.90391 6.52676 3.09531 6.03457C3.34687 5.38379 3.65313 4.91348 4.13984 4.42676C4.63203 3.93457 5.09688 3.63379 5.74766 3.38223C6.23984 3.19082 6.98359 2.96113 8.34531 2.90098C9.81641 2.83535 10.2594 2.81894 14 2.81894ZM14 0.297852C10.1992 0.297852 9.72344 0.314258 8.23047 0.379883C6.74297 0.445508 5.72031 0.686133 4.83437 1.03066C3.91016 1.3916 3.12813 1.86738 2.35156 2.64941C1.56953 3.42598 1.09375 4.20801 0.732812 5.12676C0.388281 6.01816 0.147656 7.03535 0.0820313 8.52285C0.0164063 10.0213 0 10.4971 0 14.2979C0 18.0986 0.0164063 18.5744 0.0820313 20.0674C0.147656 21.5549 0.388281 22.5775 0.732812 23.4635C1.09375 24.3877 1.56953 25.1697 2.35156 25.9463C3.12813 26.7229 3.91016 27.2041 4.82891 27.5596C5.72031 27.9041 6.7375 28.1447 8.225 28.2104C9.71797 28.276 10.1937 28.2924 13.9945 28.2924C17.7953 28.2924 18.2711 28.276 19.7641 28.2104C21.2516 28.1447 22.2742 27.9041 23.1602 27.5596C24.0789 27.2041 24.8609 26.7229 25.6375 25.9463C26.4141 25.1697 26.8953 24.3877 27.2508 23.4689C27.5953 22.5775 27.8359 21.5604 27.9016 20.0729C27.9672 18.5799 27.9836 18.1041 27.9836 14.3033C27.9836 10.5025 27.9672 10.0268 27.9016 8.53379C27.8359 7.04629 27.5953 6.02363 27.2508 5.1377C26.9062 4.20801 26.4305 3.42598 25.6484 2.64941C24.8719 1.87285 24.0898 1.3916 23.1711 1.03613C22.2797 0.691602 21.2625 0.450977 19.775 0.385352C18.2766 0.314258 17.8008 0.297852 14 0.297852Z" fill="white"/>
<path d="M14 7.10645C10.0297 7.10645 6.80859 10.3275 6.80859 14.2979C6.80859 18.2682 10.0297 21.4893 14 21.4893C17.9703 21.4893 21.1914 18.2682 21.1914 14.2979C21.1914 10.3275 17.9703 7.10645 14 7.10645ZM14 18.9627C11.4242 18.9627 9.33516 16.8736 9.33516 14.2979C9.33516 11.7221 11.4242 9.63301 14 9.63301C16.5758 9.63301 18.6648 11.7221 18.6648 14.2979C18.6648 16.8736 16.5758 18.9627 14 18.9627Z" fill="white"/>
<path d="M23.1547 6.82197C23.1547 7.75166 22.4 8.50088 21.4758 8.50088C20.5461 8.50088 19.7969 7.74619 19.7969 6.82197C19.7969 5.89229 20.5516 5.14307 21.4758 5.14307C22.4 5.14307 23.1547 5.89775 23.1547 6.82197Z" fill="white"/>
</svg>
