<svg width="65" height="65" viewBox="0 0 65 65" fill="none" xmlns="http://www.w3.org/2000/svg">
<path d="M32.1602 1.40332C49.4356 1.40332 63.4404 15.4081 63.4404 32.6836C63.4404 49.9591 49.4356 63.9639 32.1602 63.9639C14.8847 63.9639 0.879883 49.9591 0.879883 32.6836C0.879883 15.4081 14.8847 1.40332 32.1602 1.40332Z" stroke="#203D4D" stroke-width="1.44"/>
<path d="M38.3305 31.7616V42.6992C38.3305 43.816 37.426 44.7113 36.3184 44.7113H28.6205C27.5037 44.7113 26.6084 43.8068 26.6084 42.6992V31.7616C26.6084 30.3587 27.2268 29.0388 28.2883 28.125C29.6266 26.9805 29.7743 24.6084 29.7743 24.6084H35.1646C35.1646 24.6084 35.3123 26.9805 36.6506 28.125C37.7121 29.0296 38.3305 30.3587 38.3305 31.7616Z" stroke="#203D4D" stroke-width="1.95459" stroke-linecap="round" stroke-linejoin="round"/>
<path d="M26.5898 31.7621C26.5898 31.7621 30.1249 30.2761 32.4601 32.8697C34.7953 35.4634 38.3304 34.5034 38.3304 34.5034" stroke="#203D4D" stroke-width="1.95459" stroke-linecap="round" stroke-linejoin="round"/>
<path d="M32.46 51.92C42.6552 51.92 50.92 43.6552 50.92 33.46C50.92 23.2648 42.6552 15 32.46 15C22.2648 15 14 23.2648 14 33.46C14 43.6552 22.2648 51.92 32.46 51.92Z" stroke="#203D4D" stroke-width="1.95459" stroke-linecap="round" stroke-linejoin="round"/>
<path d="M39.7002 26.2191L45.5111 20.4082" stroke="#203D4D" stroke-width="1.95459" stroke-linecap="round" stroke-linejoin="round"/>
<path d="M19.4082 46.5113L23.1925 42.7271" stroke="#203D4D" stroke-width="1.95459" stroke-linecap="round" stroke-linejoin="round"/>
<path d="M35.155 24.6079H29.7646V22.365C29.7646 21.7097 30.3 21.1743 30.9553 21.1743H33.9643C34.6196 21.1743 35.155 21.7097 35.155 22.365V24.6079Z" stroke="#203D4D" stroke-width="1.95459" stroke-linecap="round" stroke-linejoin="round"/>
</svg>
