<svg width="65" height="65" viewBox="0 0 65 65" fill="none" xmlns="http://www.w3.org/2000/svg">
<path d="M32.4648 1.40332C49.7403 1.40332 63.7451 15.4081 63.7451 32.6836C63.7451 49.9591 49.7403 63.9639 32.4648 63.9639C15.1894 63.9639 1.18457 49.9591 1.18457 32.6836C1.18457 15.4081 15.1894 1.40332 32.4648 1.40332Z" stroke="#203D4D" stroke-width="1.44"/>
<path d="M48.5349 18.7835C39.7318 18.7115 32.042 23.8918 30.0646 32.5113C29.801 33.6337 29.9621 34.7992 30.0353 35.936C30.0646 36.3533 29.8596 36.5836 29.4348 36.6267H29.259C28.6878 36.7131 28.3655 36.4684 28.2777 35.9216C27.4281 30.655 30.5919 25.2157 34.532 21.8629C38.7065 18.323 43.9649 16.7113 50.3072 17.0423C50.732 17.0567 51.0103 17.474 50.8931 17.8625C50.439 19.3159 50.234 20.8268 50.2486 22.3953C50.2632 25.0142 50.2925 27.6331 50.3218 30.2521C50.439 38.8571 44.3311 45.0303 35.2937 43.4906C35.1326 43.4618 34.9861 43.3899 34.8689 43.2892C34.5028 42.9582 34.3856 42.6129 34.532 42.2387C34.6785 41.8214 34.9861 41.6631 35.4255 41.7351C40.8597 42.6416 44.7705 40.8861 47.158 36.4828C48.9889 33.13 48.6374 27.7339 48.4616 23.7767C48.3884 22.2082 48.5056 20.6685 48.8278 19.1432C48.8718 18.9705 48.7253 18.7978 48.5349 18.7978" fill="#203D4D"/>
<path d="M30.9875 42.1087C32.335 34.0648 37.2419 27.9204 43.8185 23.2438C43.9503 23.1574 44.0968 23.1143 44.2579 23.0999C44.917 23.0711 45.2393 23.4021 45.21 24.0784C45.21 24.323 45.0782 24.5532 44.8731 24.7115C38.3258 29.4457 33.6679 35.3024 32.5694 43.4326C32.3204 45.3032 32.1739 47.2314 32.1153 49.2316C32.1153 49.577 31.8077 49.8504 31.4562 49.8216C31.3976 49.8216 31.3097 49.8216 31.2218 49.8072C30.6652 49.764 30.3869 49.4762 30.4016 48.9294C30.4455 42.2526 25.7291 37.8781 20.1192 34.18C19.6651 33.8778 19.5479 33.4893 19.7676 33.0144C19.8116 32.9281 19.8555 32.8417 19.9287 32.7698C20.1631 32.5251 20.5439 32.4676 20.8369 32.6403C24.6598 34.8419 28.5414 38.1947 30.6066 42.1663C30.797 42.526 30.9142 42.4972 30.9875 42.1087Z" fill="#203D4D"/>
<path d="M16.1058 28.6687C16.3402 31.0574 16.3988 33.6619 16.2669 36.4391C15.974 42.9001 20.6904 47.289 27.4282 45.4183C27.7797 45.3176 28.1313 45.5191 28.2338 45.85C28.2484 45.8932 28.2631 45.9364 28.2777 45.9939C28.4096 46.4256 28.2045 46.8861 27.7797 47.0588C27.0181 47.3753 26.2564 47.5624 25.4801 47.6056C17.5413 48.066 14.0699 42.008 14.4653 35.0002C14.6265 32.1798 14.4653 29.5752 14.0113 27.2153C13.938 26.8412 14.231 26.4814 14.6265 26.4814C18.6545 26.5102 22.536 27.1865 26.2564 28.496C26.4029 28.5536 26.5347 28.6399 26.6372 28.755C27.1206 29.3162 27.2524 29.7479 27.0034 30.0645C26.7398 30.4098 26.3882 30.4962 25.9781 30.3235C23.034 29.1579 19.8555 28.4816 16.4574 28.3233C16.2084 28.3233 16.1058 28.4241 16.1205 28.6687" fill="#203D4D"/>
</svg>
