<svg width="64" height="64" viewBox="0 0 64 64" fill="none" xmlns="http://www.w3.org/2000/svg">
<path d="M32 0.719727C49.2755 0.719727 63.2803 14.7245 63.2803 32C63.2803 49.2755 49.2755 63.2803 32 63.2803C14.7245 63.2803 0.719727 49.2755 0.719727 32C0.719727 14.7245 14.7245 0.719727 32 0.719727Z" stroke="#203D4D" stroke-width="1.44"/>
<path d="M23.3846 25H18.4615C17.1021 25 16 26.1021 16 27.4615V37.3077C16 38.6672 17.1021 39.7692 18.4615 39.7692H23.3846C24.7441 39.7692 25.8462 38.6672 25.8462 37.3077V27.4615C25.8462 26.1021 24.7441 25 23.3846 25Z" stroke="#203D4D" stroke-width="1.69412" stroke-linecap="round" stroke-linejoin="round"/>
<path d="M45.537 25H40.6139C39.2544 25 38.1523 26.1021 38.1523 27.4615V37.3077C38.1523 38.6672 39.2544 39.7692 40.6139 39.7692H45.537C46.8964 39.7692 47.9985 38.6672 47.9985 37.3077V27.4615C47.9985 26.1021 46.8964 25 45.537 25Z" stroke="#203D4D" stroke-width="1.69412" stroke-linecap="round" stroke-linejoin="round"/>
<path d="M25.8477 32.3848H38.1554" stroke="#203D4D" stroke-width="1.69412" stroke-linecap="round" stroke-linejoin="round"/>
</svg>
