<svg width="29" height="29" viewBox="0 0 29 29" fill="none" xmlns="http://www.w3.org/2000/svg">
<path d="M14.144 0.297852C6.41123 0.297852 0.144043 6.56504 0.144043 14.2979C0.144043 20.2314 3.83545 25.2955 9.0417 27.3354C8.92139 26.2252 8.80654 24.5299 9.09092 23.3213C9.34795 22.2275 10.7315 16.365 10.7315 16.365C10.7315 16.365 10.3104 15.5283 10.3104 14.2869C10.3104 12.34 11.437 10.8854 12.8425 10.8854C14.0347 10.8854 14.6144 11.7822 14.6144 12.8596C14.6144 14.0627 13.8487 15.8564 13.455 17.5189C13.1269 18.9135 14.155 20.051 15.5276 20.051C18.0159 20.051 19.93 17.426 19.93 13.6416C19.93 10.2893 17.5237 7.94316 14.0839 7.94316C10.1026 7.94316 7.76201 10.9291 7.76201 14.0189C7.76201 15.2221 8.22686 16.5127 8.80654 17.2127C8.92139 17.3494 8.93779 17.4752 8.90498 17.6119C8.80107 18.0549 8.56045 19.0064 8.5167 19.1979C8.45654 19.4549 8.31435 19.5096 8.04639 19.3838C6.29639 18.5689 5.20264 16.015 5.20264 13.9588C5.20264 9.54004 8.41279 5.4877 14.4503 5.4877C19.3065 5.4877 23.08 8.94941 23.08 13.576C23.08 18.3994 20.0394 22.2822 15.8175 22.2822C14.4011 22.2822 13.0667 21.5439 12.6073 20.6744C12.6073 20.6744 11.9073 23.3486 11.7378 24.0049C11.4206 25.2189 10.5675 26.7447 9.99873 27.6744C11.3112 28.0791 12.7003 28.2979 14.144 28.2979C21.8769 28.2979 28.144 22.0307 28.144 14.2979C28.144 6.56504 21.8769 0.297852 14.144 0.297852Z" fill="white"/>
</svg>
