<svg width="64" height="65" viewBox="0 0 64 65" fill="none" xmlns="http://www.w3.org/2000/svg">
<path d="M32 1.61426C49.2748 1.61426 63.2793 15.6187 63.2793 32.8936C63.2793 50.1684 49.2748 64.1729 32 64.1729C14.7252 64.1728 0.720703 50.1684 0.720703 32.8936C0.720703 15.6187 14.7252 1.61426 32 1.61426Z" stroke="#EDF3F3" stroke-width="1.44231"/>
<path d="M40.4777 42.6825C40.4777 47.2137 36.8364 50.8932 32.3346 50.8932C27.8327 50.8932 24.1914 47.2217 24.1914 42.6825C24.1914 38.1434 32.3346 30.9209 32.3346 30.9209C32.3346 30.9209 40.4777 38.1434 40.4777 42.6825Z" stroke="#EDF3F3" stroke-width="1.8" stroke-miterlimit="10" stroke-linecap="round"/>
<path d="M32.3428 30.9292C32.6934 30.6481 36.4383 27.4907 36.255 22.3892C36.0957 17.8741 32.8288 15.2792 32.3428 14.8936C30.1198 16.8378 27.0601 19.7942 23.9606 23.8594C20.3113 28.6476 18.4787 31.122 18.0803 34.89C17.7377 38.1437 18.399 42.8355 21.8651 46.4989C25.9287 50.7891 31.299 50.8935 32.3348 50.8935" stroke="#EDF3F3" stroke-width="1.8" stroke-miterlimit="10" stroke-linecap="round"/>
<path d="M40.718 23.8594C44.3673 28.6476 46.1999 31.122 46.5983 34.8899C46.9409 38.1437 46.2795 42.8355 42.8135 46.4989C38.7499 50.789 33.3796 50.8935 32.3438 50.8935" stroke="#EDF3F3" stroke-width="1.8" stroke-miterlimit="10" stroke-linecap="round"/>
</svg>
