<svg width="24" height="24" viewBox="0 0 24 24" fill="none" xmlns="http://www.w3.org/2000/svg">
<g clip-path="url(#clip0_3064_1047)">
<path d="M21.9666 10.7672L17.7478 14.4075L19.0331 19.8516C19.1041 20.1471 19.0858 20.457 18.9807 20.7422C18.8755 21.0273 18.6882 21.2749 18.4425 21.4537C18.1967 21.6325 17.9034 21.7344 17.5997 21.7466C17.2961 21.7588 16.9956 21.6807 16.7363 21.5222L12.0019 18.6084L7.26471 21.5222C7.00542 21.6798 6.7053 21.7571 6.40215 21.7445C6.099 21.7318 5.80636 21.6298 5.56108 21.4512C5.31581 21.2726 5.12887 21.0254 5.02381 20.7407C4.91874 20.4561 4.90024 20.1467 4.97064 19.8516L6.26064 14.4075L2.04189 10.7672C1.81249 10.5689 1.64657 10.3075 1.56488 10.0155C1.48318 9.72345 1.48932 9.41385 1.58253 9.12531C1.67574 8.83678 1.85189 8.5821 2.08898 8.39308C2.32607 8.20407 2.6136 8.08908 2.91564 8.0625L8.44689 7.61625L10.5806 2.4525C10.6961 2.17108 10.8927 1.93036 11.1454 1.76094C11.398 1.59153 11.6954 1.50107 11.9996 1.50107C12.3037 1.50107 12.6011 1.59153 12.8537 1.76094C13.1064 1.93036 13.303 2.17108 13.4185 2.4525L15.5513 7.61625L21.0825 8.0625C21.3852 8.0881 21.6735 8.20244 21.9115 8.39119C22.1494 8.57995 22.3264 8.83473 22.4202 9.12361C22.514 9.4125 22.5204 9.72264 22.4387 10.0152C22.357 10.3077 22.1908 10.5696 21.961 10.7681L21.9666 10.7672Z" fill="#F99462"/>
</g>
<defs>
<clipPath id="clip0_3064_1047">
<rect width="24" height="24" fill="white"/>
</clipPath>
</defs>
</svg>
