<svg width="64" height="64" viewBox="0 0 64 64" fill="none" xmlns="http://www.w3.org/2000/svg">
<path d="M32 0.719727C49.2755 0.719727 63.2803 14.7245 63.2803 32C63.2803 49.2755 49.2755 63.2803 32 63.2803C14.7245 63.2803 0.719727 49.2755 0.719727 32C0.719727 14.7245 14.7245 0.719727 32 0.719727Z" stroke="#203D4D" stroke-width="1.44"/>
<path d="M43.9449 42.9652C43.9449 45.7447 41.6898 47.9998 38.9103 47.9998C36.1308 47.9998 31.9688 42.9652 31.9688 42.9652C31.9688 42.9652 36.1308 37.9307 38.9103 37.9307C41.6898 37.9307 43.9449 40.1857 43.9449 42.9652Z" stroke="#203D4D" stroke-width="1.69412" stroke-linecap="round" stroke-linejoin="round"/>
<path d="M20 42.9652C20 45.7447 22.2551 47.9998 25.0345 47.9998C27.814 47.9998 31.9761 42.9652 31.9761 42.9652C31.9761 42.9652 27.814 37.9307 25.0345 37.9307C22.2551 37.9307 20 40.1857 20 42.9652Z" stroke="#203D4D" stroke-width="1.69412" stroke-linecap="round" stroke-linejoin="round"/>
<path d="M24.822 37.9407C24.8173 37.8215 24.8125 37.7023 24.8125 37.5831V33.1242C24.8125 30.1492 27.2249 27.7368 30.1998 27.7368H33.7469C36.7219 27.7368 39.1343 30.1492 39.1343 33.1242V37.5831C39.1343 37.7023 39.1295 37.8215 39.1247 37.9407" stroke="#203D4D" stroke-width="1.69412" stroke-linecap="round" stroke-linejoin="round"/>
<path d="M31.9753 23.8569C34.145 23.8569 35.9038 22.0981 35.9038 19.9285C35.9038 17.7588 34.145 16 31.9753 16C29.8057 16 28.0469 17.7588 28.0469 19.9285C28.0469 22.0981 29.8057 23.8569 31.9753 23.8569Z" stroke="#203D4D" stroke-width="1.69412" stroke-linecap="round" stroke-linejoin="round"/>
</svg>
