<svg width="29" height="29" viewBox="0 0 29 29" fill="none" xmlns="http://www.w3.org/2000/svg">
<g clip-path="url(#clip0_3037_2856)">
<path d="M20.0622 0.297852H15.3433V19.3703C15.3433 21.6428 13.5284 23.5095 11.2698 23.5095C9.01126 23.5095 7.19634 21.6428 7.19634 19.3703C7.19634 17.1385 8.97094 15.3123 11.1489 15.2312V10.4428C6.34938 10.5239 2.47754 14.4602 2.47754 19.3703C2.47754 24.3211 6.43004 28.2979 11.3102 28.2979C16.1903 28.2979 20.1428 24.2805 20.1428 19.3703V9.59058C21.9174 10.8892 24.0953 11.6602 26.3942 11.7008V6.91235C22.845 6.79061 20.0622 3.86886 20.0622 0.297852Z" fill="white"/>
</g>
<defs>
<clipPath id="clip0_3037_2856">
<rect width="28" height="28" fill="white" transform="translate(0.144043 0.297852)"/>
</clipPath>
</defs>
</svg>
