<svg width="64" height="64" viewBox="0 0 64 64" fill="none" xmlns="http://www.w3.org/2000/svg">
<path d="M32 0.719727C49.2755 0.719727 63.2803 14.7245 63.2803 32C63.2803 49.2755 49.2755 63.2803 32 63.2803C14.7245 63.2803 0.719727 49.2755 0.719727 32C0.719727 14.7245 14.7245 0.719727 32 0.719727Z" stroke="#203D4D" stroke-width="1.44"/>
<path d="M16 40.6094C16 40.6094 20.754 46.4612 30.2255 41.2181C41.3765 35.0391 48 40.6094 48 40.6094" stroke="#203D4D" stroke-width="1.792" stroke-miterlimit="10" stroke-linecap="round"/>
<path d="M16 31.957C16 31.957 20.754 37.8088 30.2255 32.5658C41.3765 26.3868 48 31.957 48 31.957" stroke="#203D4D" stroke-width="1.792" stroke-miterlimit="10" stroke-linecap="round"/>
<path d="M16 23.3047C16 23.3047 20.754 29.1565 30.2255 23.9135C41.3765 17.7344 48 23.3047 48 23.3047" stroke="#203D4D" stroke-width="1.792" stroke-miterlimit="10" stroke-linecap="round"/>
</svg>
