<svg width="29" height="21" viewBox="0 0 29 21" fill="none" xmlns="http://www.w3.org/2000/svg">
<path d="M27.8651 4.69795C27.8651 4.69795 27.5917 2.76748 26.7495 1.91982C25.6831 0.804199 24.4909 0.79873 23.944 0.733105C20.0284 0.44873 14.1495 0.44873 14.1495 0.44873H14.1386C14.1386 0.44873 8.25967 0.44873 4.34404 0.733105C3.79717 0.79873 2.60498 0.804199 1.53857 1.91982C0.696387 2.76748 0.428418 4.69795 0.428418 4.69795C0.428418 4.69795 0.144043 6.96748 0.144043 9.23154V11.3534C0.144043 13.6175 0.422949 15.887 0.422949 15.887C0.422949 15.887 0.696387 17.8175 1.53311 18.6651C2.59951 19.7808 3.99951 19.7425 4.62295 19.8628C6.86514 20.0761 14.144 20.1417 14.144 20.1417C14.144 20.1417 20.0284 20.1308 23.944 19.8519C24.4909 19.7862 25.6831 19.7808 26.7495 18.6651C27.5917 17.8175 27.8651 15.887 27.8651 15.887C27.8651 15.887 28.144 13.6229 28.144 11.3534V9.23154C28.144 6.96748 27.8651 4.69795 27.8651 4.69795ZM11.2511 13.9292V6.05967L18.8144 10.0081L11.2511 13.9292Z" fill="white"/>
</svg>
